<?xml version="1.0" encoding="utf-8" standalone="no"?>
<!DOCTYPE svg PUBLIC "-//W3C//DTD SVG 1.1//EN"
  "http://www.w3.org/Graphics/SVG/1.1/DTD/svg11.dtd">
<svg xmlns:xlink="http://www.w3.org/1999/xlink" width="712.835pt" height="278.970063pt" viewBox="0 0 712.835 278.970063" xmlns="http://www.w3.org/2000/svg" version="1.1">
 <title/>
 <metadata>
  <rdf:RDF xmlns:dc="http://purl.org/dc/elements/1.1/" xmlns:cc="http://creativecommons.org/ns#" xmlns:rdf="http://www.w3.org/1999/02/22-rdf-syntax-ns#">
   <cc:Work>
    <dc:type rdf:resource="http://purl.org/dc/dcmitype/StillImage"/>
    <dc:title/>
    <dc:date>2025-11-13T21:04:04.237312</dc:date>
    <dc:format>image/svg+xml</dc:format>
    <dc:creator>
     <cc:Agent>
      <dc:title>Matplotlib v3.8.4, https://matplotlib.org/</dc:title>
     </cc:Agent>
    </dc:creator>
   </cc:Work>
  </rdf:RDF>
 </metadata>
 <defs>
  <style type="text/css">*{stroke-linejoin: round; stroke-linecap: butt}</style>
 </defs>
 <g id="figure_1">
  <g id="patch_1">
   <path d="M 0 278.970063 
L 712.835 278.970063 
L 712.835 0 
L 0 0 
z
"/>
  </g>
  <g id="axes_1">
   <g id="patch_2">
    <path d="M 26.925 243.894125 
L 705.635 243.894125 
L 705.635 22.318125 
L 26.925 22.318125 
z
"/>
   </g>
   <g id="patch_3">
    <path d="M 39.977115 243.894125 
L 48.564033 243.894125 
L 48.564033 229.239628 
L 39.977115 229.239628 
z
" clip-path="url(#p712758aceb)" style="fill: #add8e6"/>
   </g>
   <g id="patch_4">
    <path d="M 50.710763 243.894125 
L 59.297681 243.894125 
L 59.297681 202.861532 
L 50.710763 202.861532 
z
" clip-path="url(#p712758aceb)" style="fill: #add8e6"/>
   </g>
   <g id="patch_5">
    <path d="M 61.44441 243.894125 
L 70.031328 243.894125 
L 70.031328 91.487353 
L 61.44441 91.487353 
z
" clip-path="url(#p712758aceb)" style="fill: #add8e6"/>
   </g>
   <g id="patch_6">
    <path d="M 72.178058 243.894125 
L 80.764976 243.894125 
L 80.764976 238.032326 
L 72.178058 238.032326 
z
" clip-path="url(#p712758aceb)" style="fill: #add8e6"/>
   </g>
   <g id="patch_7">
    <path d="M 82.911705 243.894125 
L 91.498623 243.894125 
L 91.498623 208.723331 
L 82.911705 208.723331 
z
" clip-path="url(#p712758aceb)" style="fill: #add8e6"/>
   </g>
   <g id="patch_8">
    <path d="M 93.645353 243.894125 
L 102.232271 243.894125 
L 102.232271 202.861532 
L 93.645353 202.861532 
z
" clip-path="url(#p712758aceb)" style="fill: #add8e6"/>
   </g>
   <g id="patch_9">
    <path d="M 104.379001 243.894125 
L 112.965919 243.894125 
L 112.965919 191.137935 
L 104.379001 191.137935 
z
" clip-path="url(#p712758aceb)" style="fill: #add8e6"/>
   </g>
   <g id="patch_10">
    <path d="M 115.112648 243.894125 
L 123.699566 243.894125 
L 123.699566 229.239628 
L 115.112648 229.239628 
z
" clip-path="url(#p712758aceb)" style="fill: #add8e6"/>
   </g>
   <g id="patch_11">
    <path d="M 125.846296 243.894125 
L 134.433214 243.894125 
L 134.433214 232.170527 
L 125.846296 232.170527 
z
" clip-path="url(#p712758aceb)" style="fill: #add8e6"/>
   </g>
   <g id="patch_12">
    <path d="M 136.579943 243.894125 
L 145.166861 243.894125 
L 145.166861 202.861532 
L 136.579943 202.861532 
z
" clip-path="url(#p712758aceb)" style="fill: #add8e6"/>
   </g>
   <g id="patch_13">
    <path d="M 147.313591 243.894125 
L 155.900509 243.894125 
L 155.900509 229.239628 
L 147.313591 229.239628 
z
" clip-path="url(#p712758aceb)" style="fill: #add8e6"/>
   </g>
   <g id="patch_14">
    <path d="M 158.047238 243.894125 
L 166.634156 243.894125 
L 166.634156 179.414337 
L 158.047238 179.414337 
z
" clip-path="url(#p712758aceb)" style="fill: #add8e6"/>
   </g>
   <g id="patch_15">
    <path d="M 168.780886 243.894125 
L 177.367804 243.894125 
L 177.367804 199.930633 
L 168.780886 199.930633 
z
" clip-path="url(#p712758aceb)" style="fill: #add8e6"/>
   </g>
   <g id="patch_16">
    <path d="M 179.514533 243.894125 
L 188.101451 243.894125 
L 188.101451 179.414337 
L 179.514533 179.414337 
z
" clip-path="url(#p712758aceb)" style="fill: #add8e6"/>
   </g>
   <g id="patch_17">
    <path d="M 190.248181 243.894125 
L 198.835099 243.894125 
L 198.835099 179.414337 
L 190.248181 179.414337 
z
" clip-path="url(#p712758aceb)" style="fill: #add8e6"/>
   </g>
   <g id="patch_18">
    <path d="M 200.981828 243.894125 
L 209.568746 243.894125 
L 209.568746 226.308728 
L 200.981828 226.308728 
z
" clip-path="url(#p712758aceb)" style="fill: #add8e6"/>
   </g>
   <g id="patch_19">
    <path d="M 211.715476 243.894125 
L 220.302394 243.894125 
L 220.302394 223.377829 
L 211.715476 223.377829 
z
" clip-path="url(#p712758aceb)" style="fill: #add8e6"/>
   </g>
   <g id="patch_20">
    <path d="M 222.449123 243.894125 
L 231.036041 243.894125 
L 231.036041 202.861532 
L 222.449123 202.861532 
z
" clip-path="url(#p712758aceb)" style="fill: #add8e6"/>
   </g>
   <g id="patch_21">
    <path d="M 233.182771 243.894125 
L 241.769689 243.894125 
L 241.769689 188.207035 
L 233.182771 188.207035 
z
" clip-path="url(#p712758aceb)" style="fill: #add8e6"/>
   </g>
   <g id="patch_22">
    <path d="M 243.916418 243.894125 
L 252.503336 243.894125 
L 252.503336 205.792432 
L 243.916418 205.792432 
z
" clip-path="url(#p712758aceb)" style="fill: #add8e6"/>
   </g>
   <g id="patch_23">
    <path d="M 254.650066 243.894125 
L 263.236984 243.894125 
L 263.236984 220.446929 
L 254.650066 220.446929 
z
" clip-path="url(#p712758aceb)" style="fill: #add8e6"/>
   </g>
   <g id="patch_24">
    <path d="M 265.383713 243.894125 
L 273.970631 243.894125 
L 273.970631 208.723331 
L 265.383713 208.723331 
z
" clip-path="url(#p712758aceb)" style="fill: #add8e6"/>
   </g>
   <g id="patch_25">
    <path d="M 276.117361 243.894125 
L 284.704279 243.894125 
L 284.704279 182.345236 
L 276.117361 182.345236 
z
" clip-path="url(#p712758aceb)" style="fill: #add8e6"/>
   </g>
   <g id="patch_26">
    <path d="M 286.851008 243.894125 
L 295.437926 243.894125 
L 295.437926 194.068834 
L 286.851008 194.068834 
z
" clip-path="url(#p712758aceb)" style="fill: #add8e6"/>
   </g>
   <g id="patch_27">
    <path d="M 297.584656 243.894125 
L 306.171574 243.894125 
L 306.171574 196.999733 
L 297.584656 196.999733 
z
" clip-path="url(#p712758aceb)" style="fill: #add8e6"/>
   </g>
   <g id="patch_28">
    <path d="M 308.318303 243.894125 
L 316.905221 243.894125 
L 316.905221 144.243543 
L 308.318303 144.243543 
z
" clip-path="url(#p712758aceb)" style="fill: #add8e6"/>
   </g>
   <g id="patch_29">
    <path d="M 319.051951 243.894125 
L 327.638869 243.894125 
L 327.638869 188.207035 
L 319.051951 188.207035 
z
" clip-path="url(#p712758aceb)" style="fill: #add8e6"/>
   </g>
   <g id="patch_30">
    <path d="M 329.785598 243.894125 
L 338.372516 243.894125 
L 338.372516 223.377829 
L 329.785598 223.377829 
z
" clip-path="url(#p712758aceb)" style="fill: #add8e6"/>
   </g>
   <g id="patch_31">
    <path d="M 340.519246 243.894125 
L 349.106164 243.894125 
L 349.106164 211.654231 
L 340.519246 211.654231 
z
" clip-path="url(#p712758aceb)" style="fill: #add8e6"/>
   </g>
   <g id="patch_32">
    <path d="M 351.252893 243.894125 
L 359.839811 243.894125 
L 359.839811 208.723331 
L 351.252893 208.723331 
z
" clip-path="url(#p712758aceb)" style="fill: #add8e6"/>
   </g>
   <g id="patch_33">
    <path d="M 361.986541 243.894125 
L 370.573459 243.894125 
L 370.573459 167.690739 
L 361.986541 167.690739 
z
" clip-path="url(#p712758aceb)" style="fill: #add8e6"/>
   </g>
   <g id="patch_34">
    <path d="M 372.720189 243.894125 
L 381.307107 243.894125 
L 381.307107 235.101427 
L 372.720189 235.101427 
z
" clip-path="url(#p712758aceb)" style="fill: #add8e6"/>
   </g>
   <g id="patch_35">
    <path d="M 383.453836 243.894125 
L 392.040754 243.894125 
L 392.040754 220.446929 
L 383.453836 220.446929 
z
" clip-path="url(#p712758aceb)" style="fill: #add8e6"/>
   </g>
   <g id="patch_36">
    <path d="M 394.187484 243.894125 
L 402.774402 243.894125 
L 402.774402 229.239628 
L 394.187484 229.239628 
z
" clip-path="url(#p712758aceb)" style="fill: #add8e6"/>
   </g>
   <g id="patch_37">
    <path d="M 404.921131 243.894125 
L 413.508049 243.894125 
L 413.508049 194.068834 
L 404.921131 194.068834 
z
" clip-path="url(#p712758aceb)" style="fill: #add8e6"/>
   </g>
   <g id="patch_38">
    <path d="M 415.654779 243.894125 
L 424.241697 243.894125 
L 424.241697 220.446929 
L 415.654779 220.446929 
z
" clip-path="url(#p712758aceb)" style="fill: #add8e6"/>
   </g>
   <g id="patch_39">
    <path d="M 426.388426 243.894125 
L 434.975344 243.894125 
L 434.975344 220.446929 
L 426.388426 220.446929 
z
" clip-path="url(#p712758aceb)" style="fill: #add8e6"/>
   </g>
   <g id="patch_40">
    <path d="M 437.122074 243.894125 
L 445.708992 243.894125 
L 445.708992 229.239628 
L 437.122074 229.239628 
z
" clip-path="url(#p712758aceb)" style="fill: #add8e6"/>
   </g>
   <g id="patch_41">
    <path d="M 447.855721 243.894125 
L 456.442639 243.894125 
L 456.442639 179.414337 
L 447.855721 179.414337 
z
" clip-path="url(#p712758aceb)" style="fill: #add8e6"/>
   </g>
   <g id="patch_42">
    <path d="M 458.589369 243.894125 
L 467.176287 243.894125 
L 467.176287 194.068834 
L 458.589369 194.068834 
z
" clip-path="url(#p712758aceb)" style="fill: #add8e6"/>
   </g>
   <g id="patch_43">
    <path d="M 469.323016 243.894125 
L 477.909934 243.894125 
L 477.909934 226.308728 
L 469.323016 226.308728 
z
" clip-path="url(#p712758aceb)" style="fill: #add8e6"/>
   </g>
   <g id="patch_44">
    <path d="M 480.056664 243.894125 
L 488.643582 243.894125 
L 488.643582 129.589046 
L 480.056664 129.589046 
z
" clip-path="url(#p712758aceb)" style="fill: #add8e6"/>
   </g>
   <g id="patch_45">
    <path d="M 490.790311 243.894125 
L 499.377229 243.894125 
L 499.377229 223.377829 
L 490.790311 223.377829 
z
" clip-path="url(#p712758aceb)" style="fill: #add8e6"/>
   </g>
   <g id="patch_46">
    <path d="M 501.523959 243.894125 
L 510.110877 243.894125 
L 510.110877 202.861532 
L 501.523959 202.861532 
z
" clip-path="url(#p712758aceb)" style="fill: #add8e6"/>
   </g>
   <g id="patch_47">
    <path d="M 512.257606 243.894125 
L 520.844524 243.894125 
L 520.844524 217.51603 
L 512.257606 217.51603 
z
" clip-path="url(#p712758aceb)" style="fill: #add8e6"/>
   </g>
   <g id="patch_48">
    <path d="M 522.991254 243.894125 
L 531.578172 243.894125 
L 531.578172 114.934548 
L 522.991254 114.934548 
z
" clip-path="url(#p712758aceb)" style="fill: #add8e6"/>
   </g>
   <g id="patch_49">
    <path d="M 533.724901 243.894125 
L 542.311819 243.894125 
L 542.311819 199.930633 
L 533.724901 199.930633 
z
" clip-path="url(#p712758aceb)" style="fill: #add8e6"/>
   </g>
   <g id="patch_50">
    <path d="M 544.458549 243.894125 
L 553.045467 243.894125 
L 553.045467 208.723331 
L 544.458549 208.723331 
z
" clip-path="url(#p712758aceb)" style="fill: #add8e6"/>
   </g>
   <g id="patch_51">
    <path d="M 555.192196 243.894125 
L 563.779114 243.894125 
L 563.779114 205.792432 
L 555.192196 205.792432 
z
" clip-path="url(#p712758aceb)" style="fill: #add8e6"/>
   </g>
   <g id="patch_52">
    <path d="M 565.925844 243.894125 
L 574.512762 243.894125 
L 574.512762 32.869363 
L 565.925844 32.869363 
z
" clip-path="url(#p712758aceb)" style="fill: #add8e6"/>
   </g>
   <g id="patch_53">
    <path d="M 576.659491 243.894125 
L 585.246409 243.894125 
L 585.246409 53.385659 
L 576.659491 53.385659 
z
" clip-path="url(#p712758aceb)" style="fill: #add8e6"/>
   </g>
   <g id="patch_54">
    <path d="M 587.393139 243.894125 
L 595.980057 243.894125 
L 595.980057 191.137935 
L 587.393139 191.137935 
z
" clip-path="url(#p712758aceb)" style="fill: #add8e6"/>
   </g>
   <g id="patch_55">
    <path d="M 598.126786 243.894125 
L 606.713704 243.894125 
L 606.713704 135.450845 
L 598.126786 135.450845 
z
" clip-path="url(#p712758aceb)" style="fill: #add8e6"/>
   </g>
   <g id="patch_56">
    <path d="M 608.860434 243.894125 
L 617.447352 243.894125 
L 617.447352 226.308728 
L 608.860434 226.308728 
z
" clip-path="url(#p712758aceb)" style="fill: #add8e6"/>
   </g>
   <g id="patch_57">
    <path d="M 619.594081 243.894125 
L 628.180999 243.894125 
L 628.180999 188.207035 
L 619.594081 188.207035 
z
" clip-path="url(#p712758aceb)" style="fill: #add8e6"/>
   </g>
   <g id="patch_58">
    <path d="M 630.327729 243.894125 
L 638.914647 243.894125 
L 638.914647 211.654231 
L 630.327729 211.654231 
z
" clip-path="url(#p712758aceb)" style="fill: #add8e6"/>
   </g>
   <g id="patch_59">
    <path d="M 641.061377 243.894125 
L 649.648295 243.894125 
L 649.648295 114.934548 
L 641.061377 114.934548 
z
" clip-path="url(#p712758aceb)" style="fill: #add8e6"/>
   </g>
   <g id="patch_60">
    <path d="M 651.795024 243.894125 
L 660.381942 243.894125 
L 660.381942 194.068834 
L 651.795024 194.068834 
z
" clip-path="url(#p712758aceb)" style="fill: #add8e6"/>
   </g>
   <g id="patch_61">
    <path d="M 662.528672 243.894125 
L 671.11559 243.894125 
L 671.11559 191.137935 
L 662.528672 191.137935 
z
" clip-path="url(#p712758aceb)" style="fill: #add8e6"/>
   </g>
   <g id="patch_62">
    <path d="M 673.262319 243.894125 
L 681.849237 243.894125 
L 681.849237 226.308728 
L 673.262319 226.308728 
z
" clip-path="url(#p712758aceb)" style="fill: #add8e6"/>
   </g>
   <g id="patch_63">
    <path d="M 683.995967 243.894125 
L 692.582885 243.894125 
L 692.582885 238.032326 
L 683.995967 238.032326 
z
" clip-path="url(#p712758aceb)" style="fill: #add8e6"/>
   </g>
   <g id="matplotlib.axis_1">
    <g id="xtick_1">
     <g id="line2d_1">
      <defs>
       <path id="m33f90889c1" d="M 0 0 
L 0 3.5 
" style="stroke: #ffffff; stroke-width: 0.8"/>
      </defs>
      <g>
       <use xlink:href="#m33f90889c1" x="44.270574" y="243.894125" style="fill: #ffffff; stroke: #ffffff; stroke-width: 0.8"/>
      </g>
     </g>
     <g id="text_1">
      <!-- Sep -->
      <g style="fill: #ffffff" transform="translate(34.845574 258.492563) scale(0.1 -0.1)">
       <defs>
        <path id="DejaVuSans-53" d="M 3425 4513 
L 3425 3897 
Q 3066 4069 2747 4153 
Q 2428 4238 2131 4238 
Q 1616 4238 1336 4038 
Q 1056 3838 1056 3469 
Q 1056 3159 1242 3001 
Q 1428 2844 1947 2747 
L 2328 2669 
Q 3034 2534 3370 2195 
Q 3706 1856 3706 1288 
Q 3706 609 3251 259 
Q 2797 -91 1919 -91 
Q 1588 -91 1214 -16 
Q 841 59 441 206 
L 441 856 
Q 825 641 1194 531 
Q 1563 422 1919 422 
Q 2459 422 2753 634 
Q 3047 847 3047 1241 
Q 3047 1584 2836 1778 
Q 2625 1972 2144 2069 
L 1759 2144 
Q 1053 2284 737 2584 
Q 422 2884 422 3419 
Q 422 4038 858 4394 
Q 1294 4750 2059 4750 
Q 2388 4750 2728 4690 
Q 3069 4631 3425 4513 
z
" transform="scale(0.015625)"/>
        <path id="DejaVuSans-65" d="M 3597 1894 
L 3597 1613 
L 953 1613 
Q 991 1019 1311 708 
Q 1631 397 2203 397 
Q 2534 397 2845 478 
Q 3156 559 3463 722 
L 3463 178 
Q 3153 47 2828 -22 
Q 2503 -91 2169 -91 
Q 1331 -91 842 396 
Q 353 884 353 1716 
Q 353 2575 817 3079 
Q 1281 3584 2069 3584 
Q 2775 3584 3186 3129 
Q 3597 2675 3597 1894 
z
M 3022 2063 
Q 3016 2534 2758 2815 
Q 2500 3097 2075 3097 
Q 1594 3097 1305 2825 
Q 1016 2553 972 2059 
L 3022 2063 
z
" transform="scale(0.015625)"/>
        <path id="DejaVuSans-70" d="M 1159 525 
L 1159 -1331 
L 581 -1331 
L 581 3500 
L 1159 3500 
L 1159 2969 
Q 1341 3281 1617 3432 
Q 1894 3584 2278 3584 
Q 2916 3584 3314 3078 
Q 3713 2572 3713 1747 
Q 3713 922 3314 415 
Q 2916 -91 2278 -91 
Q 1894 -91 1617 61 
Q 1341 213 1159 525 
z
M 3116 1747 
Q 3116 2381 2855 2742 
Q 2594 3103 2138 3103 
Q 1681 3103 1420 2742 
Q 1159 2381 1159 1747 
Q 1159 1113 1420 752 
Q 1681 391 2138 391 
Q 2594 391 2855 752 
Q 3116 1113 3116 1747 
z
" transform="scale(0.015625)"/>
       </defs>
       <use xlink:href="#DejaVuSans-53"/>
       <use xlink:href="#DejaVuSans-65" x="63.476562"/>
       <use xlink:href="#DejaVuSans-70" x="125"/>
      </g>
      <!-- 14 -->
      <g style="fill: #ffffff" transform="translate(37.908074 269.690375) scale(0.1 -0.1)">
       <defs>
        <path id="DejaVuSans-31" d="M 794 531 
L 1825 531 
L 1825 4091 
L 703 3866 
L 703 4441 
L 1819 4666 
L 2450 4666 
L 2450 531 
L 3481 531 
L 3481 0 
L 794 0 
L 794 531 
z
" transform="scale(0.015625)"/>
        <path id="DejaVuSans-34" d="M 2419 4116 
L 825 1625 
L 2419 1625 
L 2419 4116 
z
M 2253 4666 
L 3047 4666 
L 3047 1625 
L 3713 1625 
L 3713 1100 
L 3047 1100 
L 3047 0 
L 2419 0 
L 2419 1100 
L 313 1100 
L 313 1709 
L 2253 4666 
z
" transform="scale(0.015625)"/>
       </defs>
       <use xlink:href="#DejaVuSans-31"/>
       <use xlink:href="#DejaVuSans-34" x="63.623047"/>
      </g>
     </g>
    </g>
    <g id="xtick_2">
     <g id="line2d_2">
      <g>
       <use xlink:href="#m33f90889c1" x="97.938812" y="243.894125" style="fill: #ffffff; stroke: #ffffff; stroke-width: 0.8"/>
      </g>
     </g>
     <g id="text_2">
      <!-- Sep -->
      <g style="fill: #ffffff" transform="translate(88.513812 258.492563) scale(0.1 -0.1)">
       <use xlink:href="#DejaVuSans-53"/>
       <use xlink:href="#DejaVuSans-65" x="63.476562"/>
       <use xlink:href="#DejaVuSans-70" x="125"/>
      </g>
      <!-- 19 -->
      <g style="fill: #ffffff" transform="translate(91.576312 269.690375) scale(0.1 -0.1)">
       <defs>
        <path id="DejaVuSans-39" d="M 703 97 
L 703 672 
Q 941 559 1184 500 
Q 1428 441 1663 441 
Q 2288 441 2617 861 
Q 2947 1281 2994 2138 
Q 2813 1869 2534 1725 
Q 2256 1581 1919 1581 
Q 1219 1581 811 2004 
Q 403 2428 403 3163 
Q 403 3881 828 4315 
Q 1253 4750 1959 4750 
Q 2769 4750 3195 4129 
Q 3622 3509 3622 2328 
Q 3622 1225 3098 567 
Q 2575 -91 1691 -91 
Q 1453 -91 1209 -44 
Q 966 3 703 97 
z
M 1959 2075 
Q 2384 2075 2632 2365 
Q 2881 2656 2881 3163 
Q 2881 3666 2632 3958 
Q 2384 4250 1959 4250 
Q 1534 4250 1286 3958 
Q 1038 3666 1038 3163 
Q 1038 2656 1286 2365 
Q 1534 2075 1959 2075 
z
" transform="scale(0.015625)"/>
       </defs>
       <use xlink:href="#DejaVuSans-31"/>
       <use xlink:href="#DejaVuSans-39" x="63.623047"/>
      </g>
     </g>
    </g>
    <g id="xtick_3">
     <g id="line2d_3">
      <g>
       <use xlink:href="#m33f90889c1" x="151.60705" y="243.894125" style="fill: #ffffff; stroke: #ffffff; stroke-width: 0.8"/>
      </g>
     </g>
     <g id="text_3">
      <!-- Sep -->
      <g style="fill: #ffffff" transform="translate(142.18205 258.492563) scale(0.1 -0.1)">
       <use xlink:href="#DejaVuSans-53"/>
       <use xlink:href="#DejaVuSans-65" x="63.476562"/>
       <use xlink:href="#DejaVuSans-70" x="125"/>
      </g>
      <!-- 24 -->
      <g style="fill: #ffffff" transform="translate(145.24455 269.690375) scale(0.1 -0.1)">
       <defs>
        <path id="DejaVuSans-32" d="M 1228 531 
L 3431 531 
L 3431 0 
L 469 0 
L 469 531 
Q 828 903 1448 1529 
Q 2069 2156 2228 2338 
Q 2531 2678 2651 2914 
Q 2772 3150 2772 3378 
Q 2772 3750 2511 3984 
Q 2250 4219 1831 4219 
Q 1534 4219 1204 4116 
Q 875 4013 500 3803 
L 500 4441 
Q 881 4594 1212 4672 
Q 1544 4750 1819 4750 
Q 2544 4750 2975 4387 
Q 3406 4025 3406 3419 
Q 3406 3131 3298 2873 
Q 3191 2616 2906 2266 
Q 2828 2175 2409 1742 
Q 1991 1309 1228 531 
z
" transform="scale(0.015625)"/>
       </defs>
       <use xlink:href="#DejaVuSans-32"/>
       <use xlink:href="#DejaVuSans-34" x="63.623047"/>
      </g>
     </g>
    </g>
    <g id="xtick_4">
     <g id="line2d_4">
      <g>
       <use xlink:href="#m33f90889c1" x="205.275287" y="243.894125" style="fill: #ffffff; stroke: #ffffff; stroke-width: 0.8"/>
      </g>
     </g>
     <g id="text_4">
      <!-- Sep -->
      <g style="fill: #ffffff" transform="translate(195.850287 258.492563) scale(0.1 -0.1)">
       <use xlink:href="#DejaVuSans-53"/>
       <use xlink:href="#DejaVuSans-65" x="63.476562"/>
       <use xlink:href="#DejaVuSans-70" x="125"/>
      </g>
      <!-- 29 -->
      <g style="fill: #ffffff" transform="translate(198.912787 269.690375) scale(0.1 -0.1)">
       <use xlink:href="#DejaVuSans-32"/>
       <use xlink:href="#DejaVuSans-39" x="63.623047"/>
      </g>
     </g>
    </g>
    <g id="xtick_5">
     <g id="line2d_5">
      <g>
       <use xlink:href="#m33f90889c1" x="258.943525" y="243.894125" style="fill: #ffffff; stroke: #ffffff; stroke-width: 0.8"/>
      </g>
     </g>
     <g id="text_5">
      <!-- Oct -->
      <g style="fill: #ffffff" transform="translate(250.298212 258.492563) scale(0.1 -0.1)">
       <defs>
        <path id="DejaVuSans-4f" d="M 2522 4238 
Q 1834 4238 1429 3725 
Q 1025 3213 1025 2328 
Q 1025 1447 1429 934 
Q 1834 422 2522 422 
Q 3209 422 3611 934 
Q 4013 1447 4013 2328 
Q 4013 3213 3611 3725 
Q 3209 4238 2522 4238 
z
M 2522 4750 
Q 3503 4750 4090 4092 
Q 4678 3434 4678 2328 
Q 4678 1225 4090 567 
Q 3503 -91 2522 -91 
Q 1538 -91 948 565 
Q 359 1222 359 2328 
Q 359 3434 948 4092 
Q 1538 4750 2522 4750 
z
" transform="scale(0.015625)"/>
        <path id="DejaVuSans-63" d="M 3122 3366 
L 3122 2828 
Q 2878 2963 2633 3030 
Q 2388 3097 2138 3097 
Q 1578 3097 1268 2742 
Q 959 2388 959 1747 
Q 959 1106 1268 751 
Q 1578 397 2138 397 
Q 2388 397 2633 464 
Q 2878 531 3122 666 
L 3122 134 
Q 2881 22 2623 -34 
Q 2366 -91 2075 -91 
Q 1284 -91 818 406 
Q 353 903 353 1747 
Q 353 2603 823 3093 
Q 1294 3584 2113 3584 
Q 2378 3584 2631 3529 
Q 2884 3475 3122 3366 
z
" transform="scale(0.015625)"/>
        <path id="DejaVuSans-74" d="M 1172 4494 
L 1172 3500 
L 2356 3500 
L 2356 3053 
L 1172 3053 
L 1172 1153 
Q 1172 725 1289 603 
Q 1406 481 1766 481 
L 2356 481 
L 2356 0 
L 1766 0 
Q 1100 0 847 248 
Q 594 497 594 1153 
L 594 3053 
L 172 3053 
L 172 3500 
L 594 3500 
L 594 4494 
L 1172 4494 
z
" transform="scale(0.015625)"/>
       </defs>
       <use xlink:href="#DejaVuSans-4f"/>
       <use xlink:href="#DejaVuSans-63" x="78.710938"/>
       <use xlink:href="#DejaVuSans-74" x="133.691406"/>
      </g>
      <!-- 04 -->
      <g style="fill: #ffffff" transform="translate(252.581025 269.690375) scale(0.1 -0.1)">
       <defs>
        <path id="DejaVuSans-30" d="M 2034 4250 
Q 1547 4250 1301 3770 
Q 1056 3291 1056 2328 
Q 1056 1369 1301 889 
Q 1547 409 2034 409 
Q 2525 409 2770 889 
Q 3016 1369 3016 2328 
Q 3016 3291 2770 3770 
Q 2525 4250 2034 4250 
z
M 2034 4750 
Q 2819 4750 3233 4129 
Q 3647 3509 3647 2328 
Q 3647 1150 3233 529 
Q 2819 -91 2034 -91 
Q 1250 -91 836 529 
Q 422 1150 422 2328 
Q 422 3509 836 4129 
Q 1250 4750 2034 4750 
z
" transform="scale(0.015625)"/>
       </defs>
       <use xlink:href="#DejaVuSans-30"/>
       <use xlink:href="#DejaVuSans-34" x="63.623047"/>
      </g>
     </g>
    </g>
    <g id="xtick_6">
     <g id="line2d_6">
      <g>
       <use xlink:href="#m33f90889c1" x="312.611762" y="243.894125" style="fill: #ffffff; stroke: #ffffff; stroke-width: 0.8"/>
      </g>
     </g>
     <g id="text_6">
      <!-- Oct -->
      <g style="fill: #ffffff" transform="translate(303.96645 258.492563) scale(0.1 -0.1)">
       <use xlink:href="#DejaVuSans-4f"/>
       <use xlink:href="#DejaVuSans-63" x="78.710938"/>
       <use xlink:href="#DejaVuSans-74" x="133.691406"/>
      </g>
      <!-- 09 -->
      <g style="fill: #ffffff" transform="translate(306.249262 269.690375) scale(0.1 -0.1)">
       <use xlink:href="#DejaVuSans-30"/>
       <use xlink:href="#DejaVuSans-39" x="63.623047"/>
      </g>
     </g>
    </g>
    <g id="xtick_7">
     <g id="line2d_7">
      <g>
       <use xlink:href="#m33f90889c1" x="366.28" y="243.894125" style="fill: #ffffff; stroke: #ffffff; stroke-width: 0.8"/>
      </g>
     </g>
     <g id="text_7">
      <!-- Oct -->
      <g style="fill: #ffffff" transform="translate(357.634687 258.492563) scale(0.1 -0.1)">
       <use xlink:href="#DejaVuSans-4f"/>
       <use xlink:href="#DejaVuSans-63" x="78.710938"/>
       <use xlink:href="#DejaVuSans-74" x="133.691406"/>
      </g>
      <!-- 14 -->
      <g style="fill: #ffffff" transform="translate(359.9175 269.690375) scale(0.1 -0.1)">
       <use xlink:href="#DejaVuSans-31"/>
       <use xlink:href="#DejaVuSans-34" x="63.623047"/>
      </g>
     </g>
    </g>
    <g id="xtick_8">
     <g id="line2d_8">
      <g>
       <use xlink:href="#m33f90889c1" x="419.948238" y="243.894125" style="fill: #ffffff; stroke: #ffffff; stroke-width: 0.8"/>
      </g>
     </g>
     <g id="text_8">
      <!-- Oct -->
      <g style="fill: #ffffff" transform="translate(411.302925 258.492563) scale(0.1 -0.1)">
       <use xlink:href="#DejaVuSans-4f"/>
       <use xlink:href="#DejaVuSans-63" x="78.710938"/>
       <use xlink:href="#DejaVuSans-74" x="133.691406"/>
      </g>
      <!-- 19 -->
      <g style="fill: #ffffff" transform="translate(413.585738 269.690375) scale(0.1 -0.1)">
       <use xlink:href="#DejaVuSans-31"/>
       <use xlink:href="#DejaVuSans-39" x="63.623047"/>
      </g>
     </g>
    </g>
    <g id="xtick_9">
     <g id="line2d_9">
      <g>
       <use xlink:href="#m33f90889c1" x="473.616475" y="243.894125" style="fill: #ffffff; stroke: #ffffff; stroke-width: 0.8"/>
      </g>
     </g>
     <g id="text_9">
      <!-- Oct -->
      <g style="fill: #ffffff" transform="translate(464.971163 258.492563) scale(0.1 -0.1)">
       <use xlink:href="#DejaVuSans-4f"/>
       <use xlink:href="#DejaVuSans-63" x="78.710938"/>
       <use xlink:href="#DejaVuSans-74" x="133.691406"/>
      </g>
      <!-- 24 -->
      <g style="fill: #ffffff" transform="translate(467.253975 269.690375) scale(0.1 -0.1)">
       <use xlink:href="#DejaVuSans-32"/>
       <use xlink:href="#DejaVuSans-34" x="63.623047"/>
      </g>
     </g>
    </g>
    <g id="xtick_10">
     <g id="line2d_10">
      <g>
       <use xlink:href="#m33f90889c1" x="527.284713" y="243.894125" style="fill: #ffffff; stroke: #ffffff; stroke-width: 0.8"/>
      </g>
     </g>
     <g id="text_10">
      <!-- Oct -->
      <g style="fill: #ffffff" transform="translate(518.6394 258.492563) scale(0.1 -0.1)">
       <use xlink:href="#DejaVuSans-4f"/>
       <use xlink:href="#DejaVuSans-63" x="78.710938"/>
       <use xlink:href="#DejaVuSans-74" x="133.691406"/>
      </g>
      <!-- 29 -->
      <g style="fill: #ffffff" transform="translate(520.922213 269.690375) scale(0.1 -0.1)">
       <use xlink:href="#DejaVuSans-32"/>
       <use xlink:href="#DejaVuSans-39" x="63.623047"/>
      </g>
     </g>
    </g>
    <g id="xtick_11">
     <g id="line2d_11">
      <g>
       <use xlink:href="#m33f90889c1" x="580.95295" y="243.894125" style="fill: #ffffff; stroke: #ffffff; stroke-width: 0.8"/>
      </g>
     </g>
     <g id="text_11">
      <!-- Nov -->
      <g style="fill: #ffffff" transform="translate(571.193575 258.492563) scale(0.1 -0.1)">
       <defs>
        <path id="DejaVuSans-4e" d="M 628 4666 
L 1478 4666 
L 3547 763 
L 3547 4666 
L 4159 4666 
L 4159 0 
L 3309 0 
L 1241 3903 
L 1241 0 
L 628 0 
L 628 4666 
z
" transform="scale(0.015625)"/>
        <path id="DejaVuSans-6f" d="M 1959 3097 
Q 1497 3097 1228 2736 
Q 959 2375 959 1747 
Q 959 1119 1226 758 
Q 1494 397 1959 397 
Q 2419 397 2687 759 
Q 2956 1122 2956 1747 
Q 2956 2369 2687 2733 
Q 2419 3097 1959 3097 
z
M 1959 3584 
Q 2709 3584 3137 3096 
Q 3566 2609 3566 1747 
Q 3566 888 3137 398 
Q 2709 -91 1959 -91 
Q 1206 -91 779 398 
Q 353 888 353 1747 
Q 353 2609 779 3096 
Q 1206 3584 1959 3584 
z
" transform="scale(0.015625)"/>
        <path id="DejaVuSans-76" d="M 191 3500 
L 800 3500 
L 1894 563 
L 2988 3500 
L 3597 3500 
L 2284 0 
L 1503 0 
L 191 3500 
z
" transform="scale(0.015625)"/>
       </defs>
       <use xlink:href="#DejaVuSans-4e"/>
       <use xlink:href="#DejaVuSans-6f" x="74.804688"/>
       <use xlink:href="#DejaVuSans-76" x="135.986328"/>
      </g>
      <!-- 03 -->
      <g style="fill: #ffffff" transform="translate(574.59045 269.690375) scale(0.1 -0.1)">
       <defs>
        <path id="DejaVuSans-33" d="M 2597 2516 
Q 3050 2419 3304 2112 
Q 3559 1806 3559 1356 
Q 3559 666 3084 287 
Q 2609 -91 1734 -91 
Q 1441 -91 1130 -33 
Q 819 25 488 141 
L 488 750 
Q 750 597 1062 519 
Q 1375 441 1716 441 
Q 2309 441 2620 675 
Q 2931 909 2931 1356 
Q 2931 1769 2642 2001 
Q 2353 2234 1838 2234 
L 1294 2234 
L 1294 2753 
L 1863 2753 
Q 2328 2753 2575 2939 
Q 2822 3125 2822 3475 
Q 2822 3834 2567 4026 
Q 2313 4219 1838 4219 
Q 1578 4219 1281 4162 
Q 984 4106 628 3988 
L 628 4550 
Q 988 4650 1302 4700 
Q 1616 4750 1894 4750 
Q 2613 4750 3031 4423 
Q 3450 4097 3450 3541 
Q 3450 3153 3228 2886 
Q 3006 2619 2597 2516 
z
" transform="scale(0.015625)"/>
       </defs>
       <use xlink:href="#DejaVuSans-30"/>
       <use xlink:href="#DejaVuSans-33" x="63.623047"/>
      </g>
     </g>
    </g>
    <g id="xtick_12">
     <g id="line2d_12">
      <g>
       <use xlink:href="#m33f90889c1" x="634.621188" y="243.894125" style="fill: #ffffff; stroke: #ffffff; stroke-width: 0.8"/>
      </g>
     </g>
     <g id="text_12">
      <!-- Nov -->
      <g style="fill: #ffffff" transform="translate(624.861813 258.492563) scale(0.1 -0.1)">
       <use xlink:href="#DejaVuSans-4e"/>
       <use xlink:href="#DejaVuSans-6f" x="74.804688"/>
       <use xlink:href="#DejaVuSans-76" x="135.986328"/>
      </g>
      <!-- 08 -->
      <g style="fill: #ffffff" transform="translate(628.258688 269.690375) scale(0.1 -0.1)">
       <defs>
        <path id="DejaVuSans-38" d="M 2034 2216 
Q 1584 2216 1326 1975 
Q 1069 1734 1069 1313 
Q 1069 891 1326 650 
Q 1584 409 2034 409 
Q 2484 409 2743 651 
Q 3003 894 3003 1313 
Q 3003 1734 2745 1975 
Q 2488 2216 2034 2216 
z
M 1403 2484 
Q 997 2584 770 2862 
Q 544 3141 544 3541 
Q 544 4100 942 4425 
Q 1341 4750 2034 4750 
Q 2731 4750 3128 4425 
Q 3525 4100 3525 3541 
Q 3525 3141 3298 2862 
Q 3072 2584 2669 2484 
Q 3125 2378 3379 2068 
Q 3634 1759 3634 1313 
Q 3634 634 3220 271 
Q 2806 -91 2034 -91 
Q 1263 -91 848 271 
Q 434 634 434 1313 
Q 434 1759 690 2068 
Q 947 2378 1403 2484 
z
M 1172 3481 
Q 1172 3119 1398 2916 
Q 1625 2713 2034 2713 
Q 2441 2713 2670 2916 
Q 2900 3119 2900 3481 
Q 2900 3844 2670 4047 
Q 2441 4250 2034 4250 
Q 1625 4250 1398 4047 
Q 1172 3844 1172 3481 
z
" transform="scale(0.015625)"/>
       </defs>
       <use xlink:href="#DejaVuSans-30"/>
       <use xlink:href="#DejaVuSans-38" x="63.623047"/>
      </g>
     </g>
    </g>
    <g id="xtick_13">
     <g id="line2d_13">
      <g>
       <use xlink:href="#m33f90889c1" x="688.289426" y="243.894125" style="fill: #ffffff; stroke: #ffffff; stroke-width: 0.8"/>
      </g>
     </g>
     <g id="text_13">
      <!-- Nov -->
      <g style="fill: #ffffff" transform="translate(678.530051 258.492563) scale(0.1 -0.1)">
       <use xlink:href="#DejaVuSans-4e"/>
       <use xlink:href="#DejaVuSans-6f" x="74.804688"/>
       <use xlink:href="#DejaVuSans-76" x="135.986328"/>
      </g>
      <!-- 13 -->
      <g style="fill: #ffffff" transform="translate(681.926926 269.690375) scale(0.1 -0.1)">
       <use xlink:href="#DejaVuSans-31"/>
       <use xlink:href="#DejaVuSans-33" x="63.623047"/>
      </g>
     </g>
    </g>
   </g>
   <g id="matplotlib.axis_2">
    <g id="ytick_1">
     <g id="line2d_14">
      <defs>
       <path id="m7e991e1afd" d="M 0 0 
L -3.5 0 
" style="stroke: #ffffff; stroke-width: 0.8"/>
      </defs>
      <g>
       <use xlink:href="#m7e991e1afd" x="26.925" y="243.894125" style="fill: #ffffff; stroke: #ffffff; stroke-width: 0.8"/>
      </g>
     </g>
     <g id="text_14">
      <!-- 0 -->
      <g style="fill: #ffffff" transform="translate(13.5625 247.693344) scale(0.1 -0.1)">
       <use xlink:href="#DejaVuSans-30"/>
      </g>
     </g>
    </g>
    <g id="ytick_2">
     <g id="line2d_15">
      <g>
       <use xlink:href="#m7e991e1afd" x="26.925" y="214.58513" style="fill: #ffffff; stroke: #ffffff; stroke-width: 0.8"/>
      </g>
     </g>
     <g id="text_15">
      <!-- 10 -->
      <g style="fill: #ffffff" transform="translate(7.2 218.384349) scale(0.1 -0.1)">
       <use xlink:href="#DejaVuSans-31"/>
       <use xlink:href="#DejaVuSans-30" x="63.623047"/>
      </g>
     </g>
    </g>
    <g id="ytick_3">
     <g id="line2d_16">
      <g>
       <use xlink:href="#m7e991e1afd" x="26.925" y="185.276136" style="fill: #ffffff; stroke: #ffffff; stroke-width: 0.8"/>
      </g>
     </g>
     <g id="text_16">
      <!-- 20 -->
      <g style="fill: #ffffff" transform="translate(7.2 189.075354) scale(0.1 -0.1)">
       <use xlink:href="#DejaVuSans-32"/>
       <use xlink:href="#DejaVuSans-30" x="63.623047"/>
      </g>
     </g>
    </g>
    <g id="ytick_4">
     <g id="line2d_17">
      <g>
       <use xlink:href="#m7e991e1afd" x="26.925" y="155.967141" style="fill: #ffffff; stroke: #ffffff; stroke-width: 0.8"/>
      </g>
     </g>
     <g id="text_17">
      <!-- 30 -->
      <g style="fill: #ffffff" transform="translate(7.2 159.76636) scale(0.1 -0.1)">
       <use xlink:href="#DejaVuSans-33"/>
       <use xlink:href="#DejaVuSans-30" x="63.623047"/>
      </g>
     </g>
    </g>
    <g id="ytick_5">
     <g id="line2d_18">
      <g>
       <use xlink:href="#m7e991e1afd" x="26.925" y="126.658146" style="fill: #ffffff; stroke: #ffffff; stroke-width: 0.8"/>
      </g>
     </g>
     <g id="text_18">
      <!-- 40 -->
      <g style="fill: #ffffff" transform="translate(7.2 130.457365) scale(0.1 -0.1)">
       <use xlink:href="#DejaVuSans-34"/>
       <use xlink:href="#DejaVuSans-30" x="63.623047"/>
      </g>
     </g>
    </g>
    <g id="ytick_6">
     <g id="line2d_19">
      <g>
       <use xlink:href="#m7e991e1afd" x="26.925" y="97.349151" style="fill: #ffffff; stroke: #ffffff; stroke-width: 0.8"/>
      </g>
     </g>
     <g id="text_19">
      <!-- 50 -->
      <g style="fill: #ffffff" transform="translate(7.2 101.14837) scale(0.1 -0.1)">
       <defs>
        <path id="DejaVuSans-35" d="M 691 4666 
L 3169 4666 
L 3169 4134 
L 1269 4134 
L 1269 2991 
Q 1406 3038 1543 3061 
Q 1681 3084 1819 3084 
Q 2600 3084 3056 2656 
Q 3513 2228 3513 1497 
Q 3513 744 3044 326 
Q 2575 -91 1722 -91 
Q 1428 -91 1123 -41 
Q 819 9 494 109 
L 494 744 
Q 775 591 1075 516 
Q 1375 441 1709 441 
Q 2250 441 2565 725 
Q 2881 1009 2881 1497 
Q 2881 1984 2565 2268 
Q 2250 2553 1709 2553 
Q 1456 2553 1204 2497 
Q 953 2441 691 2322 
L 691 4666 
z
" transform="scale(0.015625)"/>
       </defs>
       <use xlink:href="#DejaVuSans-35"/>
       <use xlink:href="#DejaVuSans-30" x="63.623047"/>
      </g>
     </g>
    </g>
    <g id="ytick_7">
     <g id="line2d_20">
      <g>
       <use xlink:href="#m7e991e1afd" x="26.925" y="68.040157" style="fill: #ffffff; stroke: #ffffff; stroke-width: 0.8"/>
      </g>
     </g>
     <g id="text_20">
      <!-- 60 -->
      <g style="fill: #ffffff" transform="translate(7.2 71.839375) scale(0.1 -0.1)">
       <defs>
        <path id="DejaVuSans-36" d="M 2113 2584 
Q 1688 2584 1439 2293 
Q 1191 2003 1191 1497 
Q 1191 994 1439 701 
Q 1688 409 2113 409 
Q 2538 409 2786 701 
Q 3034 994 3034 1497 
Q 3034 2003 2786 2293 
Q 2538 2584 2113 2584 
z
M 3366 4563 
L 3366 3988 
Q 3128 4100 2886 4159 
Q 2644 4219 2406 4219 
Q 1781 4219 1451 3797 
Q 1122 3375 1075 2522 
Q 1259 2794 1537 2939 
Q 1816 3084 2150 3084 
Q 2853 3084 3261 2657 
Q 3669 2231 3669 1497 
Q 3669 778 3244 343 
Q 2819 -91 2113 -91 
Q 1303 -91 875 529 
Q 447 1150 447 2328 
Q 447 3434 972 4092 
Q 1497 4750 2381 4750 
Q 2619 4750 2861 4703 
Q 3103 4656 3366 4563 
z
" transform="scale(0.015625)"/>
       </defs>
       <use xlink:href="#DejaVuSans-36"/>
       <use xlink:href="#DejaVuSans-30" x="63.623047"/>
      </g>
     </g>
    </g>
    <g id="ytick_8">
     <g id="line2d_21">
      <g>
       <use xlink:href="#m7e991e1afd" x="26.925" y="38.731162" style="fill: #ffffff; stroke: #ffffff; stroke-width: 0.8"/>
      </g>
     </g>
     <g id="text_21">
      <!-- 70 -->
      <g style="fill: #ffffff" transform="translate(7.2 42.530381) scale(0.1 -0.1)">
       <defs>
        <path id="DejaVuSans-37" d="M 525 4666 
L 3525 4666 
L 3525 4397 
L 1831 0 
L 1172 0 
L 2766 4134 
L 525 4134 
L 525 4666 
z
" transform="scale(0.015625)"/>
       </defs>
       <use xlink:href="#DejaVuSans-37"/>
       <use xlink:href="#DejaVuSans-30" x="63.623047"/>
      </g>
     </g>
    </g>
   </g>
   <g id="patch_64">
    <path d="M 26.925 243.894125 
L 26.925 22.318125 
" style="fill: none; stroke: #ffffff; stroke-width: 0.8; stroke-linejoin: miter; stroke-linecap: square"/>
   </g>
   <g id="patch_65">
    <path d="M 705.635 243.894125 
L 705.635 22.318125 
" style="fill: none; stroke: #ffffff; stroke-width: 0.8; stroke-linejoin: miter; stroke-linecap: square"/>
   </g>
   <g id="patch_66">
    <path d="M 26.925 243.894125 
L 705.635 243.894125 
" style="fill: none; stroke: #ffffff; stroke-width: 0.8; stroke-linejoin: miter; stroke-linecap: square"/>
   </g>
   <g id="patch_67">
    <path d="M 26.925 22.318125 
L 705.635 22.318125 
" style="fill: none; stroke: #ffffff; stroke-width: 0.8; stroke-linejoin: miter; stroke-linecap: square"/>
   </g>
   <g id="text_22">
    <!-- Trump posts per day -->
    <g style="fill: #ffffff" transform="translate(304.76875 16.318125) scale(0.12 -0.12)">
     <defs>
      <path id="DejaVuSans-54" d="M -19 4666 
L 3928 4666 
L 3928 4134 
L 2272 4134 
L 2272 0 
L 1638 0 
L 1638 4134 
L -19 4134 
L -19 4666 
z
" transform="scale(0.015625)"/>
      <path id="DejaVuSans-72" d="M 2631 2963 
Q 2534 3019 2420 3045 
Q 2306 3072 2169 3072 
Q 1681 3072 1420 2755 
Q 1159 2438 1159 1844 
L 1159 0 
L 581 0 
L 581 3500 
L 1159 3500 
L 1159 2956 
Q 1341 3275 1631 3429 
Q 1922 3584 2338 3584 
Q 2397 3584 2469 3576 
Q 2541 3569 2628 3553 
L 2631 2963 
z
" transform="scale(0.015625)"/>
      <path id="DejaVuSans-75" d="M 544 1381 
L 544 3500 
L 1119 3500 
L 1119 1403 
Q 1119 906 1312 657 
Q 1506 409 1894 409 
Q 2359 409 2629 706 
Q 2900 1003 2900 1516 
L 2900 3500 
L 3475 3500 
L 3475 0 
L 2900 0 
L 2900 538 
Q 2691 219 2414 64 
Q 2138 -91 1772 -91 
Q 1169 -91 856 284 
Q 544 659 544 1381 
z
M 1991 3584 
L 1991 3584 
z
" transform="scale(0.015625)"/>
      <path id="DejaVuSans-6d" d="M 3328 2828 
Q 3544 3216 3844 3400 
Q 4144 3584 4550 3584 
Q 5097 3584 5394 3201 
Q 5691 2819 5691 2113 
L 5691 0 
L 5113 0 
L 5113 2094 
Q 5113 2597 4934 2840 
Q 4756 3084 4391 3084 
Q 3944 3084 3684 2787 
Q 3425 2491 3425 1978 
L 3425 0 
L 2847 0 
L 2847 2094 
Q 2847 2600 2669 2842 
Q 2491 3084 2119 3084 
Q 1678 3084 1418 2786 
Q 1159 2488 1159 1978 
L 1159 0 
L 581 0 
L 581 3500 
L 1159 3500 
L 1159 2956 
Q 1356 3278 1631 3431 
Q 1906 3584 2284 3584 
Q 2666 3584 2933 3390 
Q 3200 3197 3328 2828 
z
" transform="scale(0.015625)"/>
      <path id="DejaVuSans-20" transform="scale(0.015625)"/>
      <path id="DejaVuSans-73" d="M 2834 3397 
L 2834 2853 
Q 2591 2978 2328 3040 
Q 2066 3103 1784 3103 
Q 1356 3103 1142 2972 
Q 928 2841 928 2578 
Q 928 2378 1081 2264 
Q 1234 2150 1697 2047 
L 1894 2003 
Q 2506 1872 2764 1633 
Q 3022 1394 3022 966 
Q 3022 478 2636 193 
Q 2250 -91 1575 -91 
Q 1294 -91 989 -36 
Q 684 19 347 128 
L 347 722 
Q 666 556 975 473 
Q 1284 391 1588 391 
Q 1994 391 2212 530 
Q 2431 669 2431 922 
Q 2431 1156 2273 1281 
Q 2116 1406 1581 1522 
L 1381 1569 
Q 847 1681 609 1914 
Q 372 2147 372 2553 
Q 372 3047 722 3315 
Q 1072 3584 1716 3584 
Q 2034 3584 2315 3537 
Q 2597 3491 2834 3397 
z
" transform="scale(0.015625)"/>
      <path id="DejaVuSans-64" d="M 2906 2969 
L 2906 4863 
L 3481 4863 
L 3481 0 
L 2906 0 
L 2906 525 
Q 2725 213 2448 61 
Q 2172 -91 1784 -91 
Q 1150 -91 751 415 
Q 353 922 353 1747 
Q 353 2572 751 3078 
Q 1150 3584 1784 3584 
Q 2172 3584 2448 3432 
Q 2725 3281 2906 2969 
z
M 947 1747 
Q 947 1113 1208 752 
Q 1469 391 1925 391 
Q 2381 391 2643 752 
Q 2906 1113 2906 1747 
Q 2906 2381 2643 2742 
Q 2381 3103 1925 3103 
Q 1469 3103 1208 2742 
Q 947 2381 947 1747 
z
" transform="scale(0.015625)"/>
      <path id="DejaVuSans-61" d="M 2194 1759 
Q 1497 1759 1228 1600 
Q 959 1441 959 1056 
Q 959 750 1161 570 
Q 1363 391 1709 391 
Q 2188 391 2477 730 
Q 2766 1069 2766 1631 
L 2766 1759 
L 2194 1759 
z
M 3341 1997 
L 3341 0 
L 2766 0 
L 2766 531 
Q 2569 213 2275 61 
Q 1981 -91 1556 -91 
Q 1019 -91 701 211 
Q 384 513 384 1019 
Q 384 1609 779 1909 
Q 1175 2209 1959 2209 
L 2766 2209 
L 2766 2266 
Q 2766 2663 2505 2880 
Q 2244 3097 1772 3097 
Q 1472 3097 1187 3025 
Q 903 2953 641 2809 
L 641 3341 
Q 956 3463 1253 3523 
Q 1550 3584 1831 3584 
Q 2591 3584 2966 3190 
Q 3341 2797 3341 1997 
z
" transform="scale(0.015625)"/>
      <path id="DejaVuSans-79" d="M 2059 -325 
Q 1816 -950 1584 -1140 
Q 1353 -1331 966 -1331 
L 506 -1331 
L 506 -850 
L 844 -850 
Q 1081 -850 1212 -737 
Q 1344 -625 1503 -206 
L 1606 56 
L 191 3500 
L 800 3500 
L 1894 763 
L 2988 3500 
L 3597 3500 
L 2059 -325 
z
" transform="scale(0.015625)"/>
     </defs>
     <use xlink:href="#DejaVuSans-54"/>
     <use xlink:href="#DejaVuSans-72" x="46.333984"/>
     <use xlink:href="#DejaVuSans-75" x="87.447266"/>
     <use xlink:href="#DejaVuSans-6d" x="150.826172"/>
     <use xlink:href="#DejaVuSans-70" x="248.238281"/>
     <use xlink:href="#DejaVuSans-20" x="311.714844"/>
     <use xlink:href="#DejaVuSans-70" x="343.501953"/>
     <use xlink:href="#DejaVuSans-6f" x="406.978516"/>
     <use xlink:href="#DejaVuSans-73" x="468.160156"/>
     <use xlink:href="#DejaVuSans-74" x="520.259766"/>
     <use xlink:href="#DejaVuSans-73" x="559.46875"/>
     <use xlink:href="#DejaVuSans-20" x="611.568359"/>
     <use xlink:href="#DejaVuSans-70" x="643.355469"/>
     <use xlink:href="#DejaVuSans-65" x="706.832031"/>
     <use xlink:href="#DejaVuSans-72" x="768.355469"/>
     <use xlink:href="#DejaVuSans-20" x="809.46875"/>
     <use xlink:href="#DejaVuSans-64" x="841.255859"/>
     <use xlink:href="#DejaVuSans-61" x="904.732422"/>
     <use xlink:href="#DejaVuSans-79" x="966.011719"/>
    </g>
   </g>
  </g>
 </g>
 <defs>
  <clipPath id="p712758aceb">
   <rect x="26.925" y="22.318125" width="678.71" height="221.576"/>
  </clipPath>
 </defs>
</svg>
