<?xml version="1.0" encoding="utf-8" standalone="no"?>
<!DOCTYPE svg PUBLIC "-//W3C//DTD SVG 1.1//EN"
  "http://www.w3.org/Graphics/SVG/1.1/DTD/svg11.dtd">
<svg xmlns:xlink="http://www.w3.org/1999/xlink" width="712.835pt" height="278.970063pt" viewBox="0 0 712.835 278.970063" xmlns="http://www.w3.org/2000/svg" version="1.1">
 <title/>
 <metadata>
  <rdf:RDF xmlns:dc="http://purl.org/dc/elements/1.1/" xmlns:cc="http://creativecommons.org/ns#" xmlns:rdf="http://www.w3.org/1999/02/22-rdf-syntax-ns#">
   <cc:Work>
    <dc:type rdf:resource="http://purl.org/dc/dcmitype/StillImage"/>
    <dc:title/>
    <dc:date>2025-06-28T21:04:04.755097</dc:date>
    <dc:format>image/svg+xml</dc:format>
    <dc:creator>
     <cc:Agent>
      <dc:title>Matplotlib v3.8.4, https://matplotlib.org/</dc:title>
     </cc:Agent>
    </dc:creator>
   </cc:Work>
  </rdf:RDF>
 </metadata>
 <defs>
  <style type="text/css">*{stroke-linejoin: round; stroke-linecap: butt}</style>
 </defs>
 <g id="figure_1">
  <g id="patch_1">
   <path d="M 0 278.970063 
L 712.835 278.970063 
L 712.835 0 
L 0 0 
z
"/>
  </g>
  <g id="axes_1">
   <g id="patch_2">
    <path d="M 26.925 243.894125 
L 705.635 243.894125 
L 705.635 22.318125 
L 26.925 22.318125 
z
"/>
   </g>
   <g id="patch_3">
    <path d="M 39.977115 243.894125 
L 48.707627 243.894125 
L 48.707627 32.869363 
L 39.977115 32.869363 
z
" clip-path="url(#pa67ee5880d)" style="fill: #add8e6"/>
   </g>
   <g id="patch_4">
    <path d="M 50.890255 243.894125 
L 59.620767 243.894125 
L 59.620767 203.485128 
L 50.890255 203.485128 
z
" clip-path="url(#pa67ee5880d)" style="fill: #add8e6"/>
   </g>
   <g id="patch_5">
    <path d="M 61.803395 243.894125 
L 70.533907 243.894125 
L 70.533907 140.626688 
L 61.803395 140.626688 
z
" clip-path="url(#pa67ee5880d)" style="fill: #add8e6"/>
   </g>
   <g id="patch_6">
    <path d="M 72.716535 243.894125 
L 81.447047 243.894125 
L 81.447047 185.525574 
L 72.716535 185.525574 
z
" clip-path="url(#pa67ee5880d)" style="fill: #add8e6"/>
   </g>
   <g id="patch_7">
    <path d="M 83.629675 243.894125 
L 92.360187 243.894125 
L 92.360187 230.424459 
L 83.629675 230.424459 
z
" clip-path="url(#pa67ee5880d)" style="fill: #add8e6"/>
   </g>
   <g id="patch_8">
    <path d="M 94.542815 243.894125 
L 103.273327 243.894125 
L 103.273327 172.055908 
L 94.542815 172.055908 
z
" clip-path="url(#pa67ee5880d)" style="fill: #add8e6"/>
   </g>
   <g id="patch_9">
    <path d="M 105.455955 243.894125 
L 114.186467 243.894125 
L 114.186467 140.626688 
L 105.455955 140.626688 
z
" clip-path="url(#pa67ee5880d)" style="fill: #add8e6"/>
   </g>
   <g id="patch_10">
    <path d="M 116.369095 243.894125 
L 125.099607 243.894125 
L 125.099607 104.70758 
L 116.369095 104.70758 
z
" clip-path="url(#pa67ee5880d)" style="fill: #add8e6"/>
   </g>
   <g id="patch_11">
    <path d="M 127.282235 243.894125 
L 136.012747 243.894125 
L 136.012747 190.015462 
L 127.282235 190.015462 
z
" clip-path="url(#pa67ee5880d)" style="fill: #add8e6"/>
   </g>
   <g id="patch_12">
    <path d="M 138.195375 243.894125 
L 146.925887 243.894125 
L 146.925887 104.70758 
L 138.195375 104.70758 
z
" clip-path="url(#pa67ee5880d)" style="fill: #add8e6"/>
   </g>
   <g id="patch_13">
    <path d="M 149.108515 243.894125 
L 157.839027 243.894125 
L 157.839027 154.096354 
L 149.108515 154.096354 
z
" clip-path="url(#pa67ee5880d)" style="fill: #add8e6"/>
   </g>
   <g id="patch_14">
    <path d="M 160.021655 243.894125 
L 168.752167 243.894125 
L 168.752167 163.076131 
L 160.021655 163.076131 
z
" clip-path="url(#pa67ee5880d)" style="fill: #add8e6"/>
   </g>
   <g id="patch_15">
    <path d="M 170.934795 243.894125 
L 179.665307 243.894125 
L 179.665307 190.015462 
L 170.934795 190.015462 
z
" clip-path="url(#pa67ee5880d)" style="fill: #add8e6"/>
   </g>
   <g id="patch_16">
    <path d="M 181.847935 243.894125 
L 190.578447 243.894125 
L 190.578447 140.626688 
L 181.847935 140.626688 
z
" clip-path="url(#pa67ee5880d)" style="fill: #add8e6"/>
   </g>
   <g id="patch_17">
    <path d="M 192.761075 243.894125 
L 201.491587 243.894125 
L 201.491587 131.646911 
L 192.761075 131.646911 
z
" clip-path="url(#pa67ee5880d)" style="fill: #add8e6"/>
   </g>
   <g id="patch_18">
    <path d="M 203.674215 243.894125 
L 212.404727 243.894125 
L 212.404727 172.055908 
L 203.674215 172.055908 
z
" clip-path="url(#pa67ee5880d)" style="fill: #add8e6"/>
   </g>
   <g id="patch_19">
    <path d="M 214.587355 243.894125 
L 223.317867 243.894125 
L 223.317867 190.015462 
L 214.587355 190.015462 
z
" clip-path="url(#pa67ee5880d)" style="fill: #add8e6"/>
   </g>
   <g id="patch_20">
    <path d="M 225.500495 243.894125 
L 234.231007 243.894125 
L 234.231007 131.646911 
L 225.500495 131.646911 
z
" clip-path="url(#pa67ee5880d)" style="fill: #add8e6"/>
   </g>
   <g id="patch_21">
    <path d="M 236.413635 243.894125 
L 245.144147 243.894125 
L 245.144147 140.626688 
L 236.413635 140.626688 
z
" clip-path="url(#pa67ee5880d)" style="fill: #add8e6"/>
   </g>
   <g id="patch_22">
    <path d="M 247.326775 243.894125 
L 256.057286 243.894125 
L 256.057286 163.076131 
L 247.326775 163.076131 
z
" clip-path="url(#pa67ee5880d)" style="fill: #add8e6"/>
   </g>
   <g id="patch_23">
    <path d="M 258.239914 243.894125 
L 266.970426 243.894125 
L 266.970426 181.035685 
L 258.239914 181.035685 
z
" clip-path="url(#pa67ee5880d)" style="fill: #add8e6"/>
   </g>
   <g id="patch_24">
    <path d="M 269.153054 243.894125 
L 277.883566 243.894125 
L 277.883566 203.485128 
L 269.153054 203.485128 
z
" clip-path="url(#pa67ee5880d)" style="fill: #add8e6"/>
   </g>
   <g id="patch_25">
    <path d="M 280.066194 243.894125 
L 288.796706 243.894125 
L 288.796706 207.975017 
L 280.066194 207.975017 
z
" clip-path="url(#pa67ee5880d)" style="fill: #add8e6"/>
   </g>
   <g id="patch_26">
    <path d="M 290.979334 243.894125 
L 299.709846 243.894125 
L 299.709846 185.525574 
L 290.979334 185.525574 
z
" clip-path="url(#pa67ee5880d)" style="fill: #add8e6"/>
   </g>
   <g id="patch_27">
    <path d="M 301.892474 243.894125 
L 310.622986 243.894125 
L 310.622986 207.975017 
L 301.892474 207.975017 
z
" clip-path="url(#pa67ee5880d)" style="fill: #add8e6"/>
   </g>
   <g id="patch_28">
    <path d="M 312.805614 243.894125 
L 321.536126 243.894125 
L 321.536126 216.954794 
L 312.805614 216.954794 
z
" clip-path="url(#pa67ee5880d)" style="fill: #add8e6"/>
   </g>
   <g id="patch_29">
    <path d="M 323.718754 243.894125 
L 332.449266 243.894125 
L 332.449266 185.525574 
L 323.718754 185.525574 
z
" clip-path="url(#pa67ee5880d)" style="fill: #add8e6"/>
   </g>
   <g id="patch_30">
    <path d="M 334.631894 243.894125 
L 343.362406 243.894125 
L 343.362406 154.096354 
L 334.631894 154.096354 
z
" clip-path="url(#pa67ee5880d)" style="fill: #add8e6"/>
   </g>
   <g id="patch_31">
    <path d="M 345.545034 243.894125 
L 354.275546 243.894125 
L 354.275546 190.015462 
L 345.545034 190.015462 
z
" clip-path="url(#pa67ee5880d)" style="fill: #add8e6"/>
   </g>
   <g id="patch_32">
    <path d="M 356.458174 243.894125 
L 365.188686 243.894125 
L 365.188686 163.076131 
L 356.458174 163.076131 
z
" clip-path="url(#pa67ee5880d)" style="fill: #add8e6"/>
   </g>
   <g id="patch_33">
    <path d="M 367.371314 243.894125 
L 376.101826 243.894125 
L 376.101826 216.954794 
L 367.371314 216.954794 
z
" clip-path="url(#pa67ee5880d)" style="fill: #add8e6"/>
   </g>
   <g id="patch_34">
    <path d="M 378.284454 243.894125 
L 387.014966 243.894125 
L 387.014966 127.157023 
L 378.284454 127.157023 
z
" clip-path="url(#pa67ee5880d)" style="fill: #add8e6"/>
   </g>
   <g id="patch_35">
    <path d="M 389.197594 243.894125 
L 397.928106 243.894125 
L 397.928106 176.545797 
L 389.197594 176.545797 
z
" clip-path="url(#pa67ee5880d)" style="fill: #add8e6"/>
   </g>
   <g id="patch_36">
    <path d="M 400.110734 243.894125 
L 408.841246 243.894125 
L 408.841246 194.505351 
L 400.110734 194.505351 
z
" clip-path="url(#pa67ee5880d)" style="fill: #add8e6"/>
   </g>
   <g id="patch_37">
    <path d="M 411.023874 243.894125 
L 419.754386 243.894125 
L 419.754386 203.485128 
L 411.023874 203.485128 
z
" clip-path="url(#pa67ee5880d)" style="fill: #add8e6"/>
   </g>
   <g id="patch_38">
    <path d="M 421.937014 243.894125 
L 430.667526 243.894125 
L 430.667526 221.444682 
L 421.937014 221.444682 
z
" clip-path="url(#pa67ee5880d)" style="fill: #add8e6"/>
   </g>
   <g id="patch_39">
    <path d="M 432.850154 243.894125 
L 441.580666 243.894125 
L 441.580666 176.545797 
L 432.850154 176.545797 
z
" clip-path="url(#pa67ee5880d)" style="fill: #add8e6"/>
   </g>
   <g id="patch_40">
    <path d="M 443.763294 243.894125 
L 452.493806 243.894125 
L 452.493806 190.015462 
L 443.763294 190.015462 
z
" clip-path="url(#pa67ee5880d)" style="fill: #add8e6"/>
   </g>
   <g id="patch_41">
    <path d="M 454.676434 243.894125 
L 463.406946 243.894125 
L 463.406946 167.56602 
L 454.676434 167.56602 
z
" clip-path="url(#pa67ee5880d)" style="fill: #add8e6"/>
   </g>
   <g id="patch_42">
    <path d="M 465.589574 243.894125 
L 474.320086 243.894125 
L 474.320086 181.035685 
L 465.589574 181.035685 
z
" clip-path="url(#pa67ee5880d)" style="fill: #add8e6"/>
   </g>
   <g id="patch_43">
    <path d="M 476.502714 243.894125 
L 485.233225 243.894125 
L 485.233225 216.954794 
L 476.502714 216.954794 
z
" clip-path="url(#pa67ee5880d)" style="fill: #add8e6"/>
   </g>
   <g id="patch_44">
    <path d="M 487.415853 243.894125 
L 496.146365 243.894125 
L 496.146365 109.197468 
L 487.415853 109.197468 
z
" clip-path="url(#pa67ee5880d)" style="fill: #add8e6"/>
   </g>
   <g id="patch_45">
    <path d="M 498.328993 243.894125 
L 507.059505 243.894125 
L 507.059505 163.076131 
L 498.328993 163.076131 
z
" clip-path="url(#pa67ee5880d)" style="fill: #add8e6"/>
   </g>
   <g id="patch_46">
    <path d="M 509.242133 243.894125 
L 517.972645 243.894125 
L 517.972645 176.545797 
L 509.242133 176.545797 
z
" clip-path="url(#pa67ee5880d)" style="fill: #add8e6"/>
   </g>
   <g id="patch_47">
    <path d="M 520.155273 243.894125 
L 528.885785 243.894125 
L 528.885785 163.076131 
L 520.155273 163.076131 
z
" clip-path="url(#pa67ee5880d)" style="fill: #add8e6"/>
   </g>
   <g id="patch_48">
    <path d="M 531.068413 243.894125 
L 539.798925 243.894125 
L 539.798925 230.424459 
L 531.068413 230.424459 
z
" clip-path="url(#pa67ee5880d)" style="fill: #add8e6"/>
   </g>
   <g id="patch_49">
    <path d="M 541.981553 243.894125 
L 550.712065 243.894125 
L 550.712065 203.485128 
L 541.981553 203.485128 
z
" clip-path="url(#pa67ee5880d)" style="fill: #add8e6"/>
   </g>
   <g id="patch_50">
    <path d="M 552.894693 243.894125 
L 561.625205 243.894125 
L 561.625205 212.464905 
L 552.894693 212.464905 
z
" clip-path="url(#pa67ee5880d)" style="fill: #add8e6"/>
   </g>
   <g id="patch_51">
    <path d="M 563.807833 243.894125 
L 572.538345 243.894125 
L 572.538345 212.464905 
L 563.807833 212.464905 
z
" clip-path="url(#pa67ee5880d)" style="fill: #add8e6"/>
   </g>
   <g id="patch_52">
    <path d="M 574.720973 243.894125 
L 583.451485 243.894125 
L 583.451485 131.646911 
L 574.720973 131.646911 
z
" clip-path="url(#pa67ee5880d)" style="fill: #add8e6"/>
   </g>
   <g id="patch_53">
    <path d="M 585.634113 243.894125 
L 594.364625 243.894125 
L 594.364625 185.525574 
L 585.634113 185.525574 
z
" clip-path="url(#pa67ee5880d)" style="fill: #add8e6"/>
   </g>
   <g id="patch_54">
    <path d="M 596.547253 243.894125 
L 605.277765 243.894125 
L 605.277765 113.687357 
L 596.547253 113.687357 
z
" clip-path="url(#pa67ee5880d)" style="fill: #add8e6"/>
   </g>
   <g id="patch_55">
    <path d="M 607.460393 243.894125 
L 616.190905 243.894125 
L 616.190905 172.055908 
L 607.460393 172.055908 
z
" clip-path="url(#pa67ee5880d)" style="fill: #add8e6"/>
   </g>
   <g id="patch_56">
    <path d="M 618.373533 243.894125 
L 627.104045 243.894125 
L 627.104045 190.015462 
L 618.373533 190.015462 
z
" clip-path="url(#pa67ee5880d)" style="fill: #add8e6"/>
   </g>
   <g id="patch_57">
    <path d="M 629.286673 243.894125 
L 638.017185 243.894125 
L 638.017185 207.975017 
L 629.286673 207.975017 
z
" clip-path="url(#pa67ee5880d)" style="fill: #add8e6"/>
   </g>
   <g id="patch_58">
    <path d="M 640.199813 243.894125 
L 648.930325 243.894125 
L 648.930325 86.748026 
L 640.199813 86.748026 
z
" clip-path="url(#pa67ee5880d)" style="fill: #add8e6"/>
   </g>
   <g id="patch_59">
    <path d="M 651.112953 243.894125 
L 659.843465 243.894125 
L 659.843465 41.84914 
L 651.112953 41.84914 
z
" clip-path="url(#pa67ee5880d)" style="fill: #add8e6"/>
   </g>
   <g id="patch_60">
    <path d="M 662.026093 243.894125 
L 670.756605 243.894125 
L 670.756605 136.1368 
L 662.026093 136.1368 
z
" clip-path="url(#pa67ee5880d)" style="fill: #add8e6"/>
   </g>
   <g id="patch_61">
    <path d="M 672.939233 243.894125 
L 681.669745 243.894125 
L 681.669745 163.076131 
L 672.939233 163.076131 
z
" clip-path="url(#pa67ee5880d)" style="fill: #add8e6"/>
   </g>
   <g id="patch_62">
    <path d="M 683.852373 243.894125 
L 692.582885 243.894125 
L 692.582885 203.485128 
L 683.852373 203.485128 
z
" clip-path="url(#pa67ee5880d)" style="fill: #add8e6"/>
   </g>
   <g id="matplotlib.axis_1">
    <g id="xtick_1">
     <g id="line2d_1">
      <defs>
       <path id="mbb4d9efd99" d="M 0 0 
L 0 3.5 
" style="stroke: #ffffff; stroke-width: 0.8"/>
      </defs>
      <g>
       <use xlink:href="#mbb4d9efd99" x="44.342371" y="243.894125" style="fill: #ffffff; stroke: #ffffff; stroke-width: 0.8"/>
      </g>
     </g>
     <g id="text_1">
      <!-- Apr -->
      <g style="fill: #ffffff" transform="translate(35.692371 258.492563) scale(0.1 -0.1)">
       <defs>
        <path id="DejaVuSans-41" d="M 2188 4044 
L 1331 1722 
L 3047 1722 
L 2188 4044 
z
M 1831 4666 
L 2547 4666 
L 4325 0 
L 3669 0 
L 3244 1197 
L 1141 1197 
L 716 0 
L 50 0 
L 1831 4666 
z
" transform="scale(0.015625)"/>
        <path id="DejaVuSans-70" d="M 1159 525 
L 1159 -1331 
L 581 -1331 
L 581 3500 
L 1159 3500 
L 1159 2969 
Q 1341 3281 1617 3432 
Q 1894 3584 2278 3584 
Q 2916 3584 3314 3078 
Q 3713 2572 3713 1747 
Q 3713 922 3314 415 
Q 2916 -91 2278 -91 
Q 1894 -91 1617 61 
Q 1341 213 1159 525 
z
M 3116 1747 
Q 3116 2381 2855 2742 
Q 2594 3103 2138 3103 
Q 1681 3103 1420 2742 
Q 1159 2381 1159 1747 
Q 1159 1113 1420 752 
Q 1681 391 2138 391 
Q 2594 391 2855 752 
Q 3116 1113 3116 1747 
z
" transform="scale(0.015625)"/>
        <path id="DejaVuSans-72" d="M 2631 2963 
Q 2534 3019 2420 3045 
Q 2306 3072 2169 3072 
Q 1681 3072 1420 2755 
Q 1159 2438 1159 1844 
L 1159 0 
L 581 0 
L 581 3500 
L 1159 3500 
L 1159 2956 
Q 1341 3275 1631 3429 
Q 1922 3584 2338 3584 
Q 2397 3584 2469 3576 
Q 2541 3569 2628 3553 
L 2631 2963 
z
" transform="scale(0.015625)"/>
       </defs>
       <use xlink:href="#DejaVuSans-41"/>
       <use xlink:href="#DejaVuSans-70" x="68.408203"/>
       <use xlink:href="#DejaVuSans-72" x="131.884766"/>
      </g>
      <!-- 29 -->
      <g style="fill: #ffffff" transform="translate(37.979871 269.690375) scale(0.1 -0.1)">
       <defs>
        <path id="DejaVuSans-32" d="M 1228 531 
L 3431 531 
L 3431 0 
L 469 0 
L 469 531 
Q 828 903 1448 1529 
Q 2069 2156 2228 2338 
Q 2531 2678 2651 2914 
Q 2772 3150 2772 3378 
Q 2772 3750 2511 3984 
Q 2250 4219 1831 4219 
Q 1534 4219 1204 4116 
Q 875 4013 500 3803 
L 500 4441 
Q 881 4594 1212 4672 
Q 1544 4750 1819 4750 
Q 2544 4750 2975 4387 
Q 3406 4025 3406 3419 
Q 3406 3131 3298 2873 
Q 3191 2616 2906 2266 
Q 2828 2175 2409 1742 
Q 1991 1309 1228 531 
z
" transform="scale(0.015625)"/>
        <path id="DejaVuSans-39" d="M 703 97 
L 703 672 
Q 941 559 1184 500 
Q 1428 441 1663 441 
Q 2288 441 2617 861 
Q 2947 1281 2994 2138 
Q 2813 1869 2534 1725 
Q 2256 1581 1919 1581 
Q 1219 1581 811 2004 
Q 403 2428 403 3163 
Q 403 3881 828 4315 
Q 1253 4750 1959 4750 
Q 2769 4750 3195 4129 
Q 3622 3509 3622 2328 
Q 3622 1225 3098 567 
Q 2575 -91 1691 -91 
Q 1453 -91 1209 -44 
Q 966 3 703 97 
z
M 1959 2075 
Q 2384 2075 2632 2365 
Q 2881 2656 2881 3163 
Q 2881 3666 2632 3958 
Q 2384 4250 1959 4250 
Q 1534 4250 1286 3958 
Q 1038 3666 1038 3163 
Q 1038 2656 1286 2365 
Q 1534 2075 1959 2075 
z
" transform="scale(0.015625)"/>
       </defs>
       <use xlink:href="#DejaVuSans-32"/>
       <use xlink:href="#DejaVuSans-39" x="63.623047"/>
      </g>
     </g>
    </g>
    <g id="xtick_2">
     <g id="line2d_2">
      <g>
       <use xlink:href="#mbb4d9efd99" x="98.908071" y="243.894125" style="fill: #ffffff; stroke: #ffffff; stroke-width: 0.8"/>
      </g>
     </g>
     <g id="text_2">
      <!-- May -->
      <g style="fill: #ffffff" transform="translate(88.570571 258.492563) scale(0.1 -0.1)">
       <defs>
        <path id="DejaVuSans-4d" d="M 628 4666 
L 1569 4666 
L 2759 1491 
L 3956 4666 
L 4897 4666 
L 4897 0 
L 4281 0 
L 4281 4097 
L 3078 897 
L 2444 897 
L 1241 4097 
L 1241 0 
L 628 0 
L 628 4666 
z
" transform="scale(0.015625)"/>
        <path id="DejaVuSans-61" d="M 2194 1759 
Q 1497 1759 1228 1600 
Q 959 1441 959 1056 
Q 959 750 1161 570 
Q 1363 391 1709 391 
Q 2188 391 2477 730 
Q 2766 1069 2766 1631 
L 2766 1759 
L 2194 1759 
z
M 3341 1997 
L 3341 0 
L 2766 0 
L 2766 531 
Q 2569 213 2275 61 
Q 1981 -91 1556 -91 
Q 1019 -91 701 211 
Q 384 513 384 1019 
Q 384 1609 779 1909 
Q 1175 2209 1959 2209 
L 2766 2209 
L 2766 2266 
Q 2766 2663 2505 2880 
Q 2244 3097 1772 3097 
Q 1472 3097 1187 3025 
Q 903 2953 641 2809 
L 641 3341 
Q 956 3463 1253 3523 
Q 1550 3584 1831 3584 
Q 2591 3584 2966 3190 
Q 3341 2797 3341 1997 
z
" transform="scale(0.015625)"/>
        <path id="DejaVuSans-79" d="M 2059 -325 
Q 1816 -950 1584 -1140 
Q 1353 -1331 966 -1331 
L 506 -1331 
L 506 -850 
L 844 -850 
Q 1081 -850 1212 -737 
Q 1344 -625 1503 -206 
L 1606 56 
L 191 3500 
L 800 3500 
L 1894 763 
L 2988 3500 
L 3597 3500 
L 2059 -325 
z
" transform="scale(0.015625)"/>
       </defs>
       <use xlink:href="#DejaVuSans-4d"/>
       <use xlink:href="#DejaVuSans-61" x="86.279297"/>
       <use xlink:href="#DejaVuSans-79" x="147.558594"/>
      </g>
      <!-- 04 -->
      <g style="fill: #ffffff" transform="translate(92.545571 269.690375) scale(0.1 -0.1)">
       <defs>
        <path id="DejaVuSans-30" d="M 2034 4250 
Q 1547 4250 1301 3770 
Q 1056 3291 1056 2328 
Q 1056 1369 1301 889 
Q 1547 409 2034 409 
Q 2525 409 2770 889 
Q 3016 1369 3016 2328 
Q 3016 3291 2770 3770 
Q 2525 4250 2034 4250 
z
M 2034 4750 
Q 2819 4750 3233 4129 
Q 3647 3509 3647 2328 
Q 3647 1150 3233 529 
Q 2819 -91 2034 -91 
Q 1250 -91 836 529 
Q 422 1150 422 2328 
Q 422 3509 836 4129 
Q 1250 4750 2034 4750 
z
" transform="scale(0.015625)"/>
        <path id="DejaVuSans-34" d="M 2419 4116 
L 825 1625 
L 2419 1625 
L 2419 4116 
z
M 2253 4666 
L 3047 4666 
L 3047 1625 
L 3713 1625 
L 3713 1100 
L 3047 1100 
L 3047 0 
L 2419 0 
L 2419 1100 
L 313 1100 
L 313 1709 
L 2253 4666 
z
" transform="scale(0.015625)"/>
       </defs>
       <use xlink:href="#DejaVuSans-30"/>
       <use xlink:href="#DejaVuSans-34" x="63.623047"/>
      </g>
     </g>
    </g>
    <g id="xtick_3">
     <g id="line2d_3">
      <g>
       <use xlink:href="#mbb4d9efd99" x="153.473771" y="243.894125" style="fill: #ffffff; stroke: #ffffff; stroke-width: 0.8"/>
      </g>
     </g>
     <g id="text_3">
      <!-- May -->
      <g style="fill: #ffffff" transform="translate(143.136271 258.492563) scale(0.1 -0.1)">
       <use xlink:href="#DejaVuSans-4d"/>
       <use xlink:href="#DejaVuSans-61" x="86.279297"/>
       <use xlink:href="#DejaVuSans-79" x="147.558594"/>
      </g>
      <!-- 09 -->
      <g style="fill: #ffffff" transform="translate(147.111271 269.690375) scale(0.1 -0.1)">
       <use xlink:href="#DejaVuSans-30"/>
       <use xlink:href="#DejaVuSans-39" x="63.623047"/>
      </g>
     </g>
    </g>
    <g id="xtick_4">
     <g id="line2d_4">
      <g>
       <use xlink:href="#mbb4d9efd99" x="208.039471" y="243.894125" style="fill: #ffffff; stroke: #ffffff; stroke-width: 0.8"/>
      </g>
     </g>
     <g id="text_4">
      <!-- May -->
      <g style="fill: #ffffff" transform="translate(197.701971 258.492563) scale(0.1 -0.1)">
       <use xlink:href="#DejaVuSans-4d"/>
       <use xlink:href="#DejaVuSans-61" x="86.279297"/>
       <use xlink:href="#DejaVuSans-79" x="147.558594"/>
      </g>
      <!-- 14 -->
      <g style="fill: #ffffff" transform="translate(201.676971 269.690375) scale(0.1 -0.1)">
       <defs>
        <path id="DejaVuSans-31" d="M 794 531 
L 1825 531 
L 1825 4091 
L 703 3866 
L 703 4441 
L 1819 4666 
L 2450 4666 
L 2450 531 
L 3481 531 
L 3481 0 
L 794 0 
L 794 531 
z
" transform="scale(0.015625)"/>
       </defs>
       <use xlink:href="#DejaVuSans-31"/>
       <use xlink:href="#DejaVuSans-34" x="63.623047"/>
      </g>
     </g>
    </g>
    <g id="xtick_5">
     <g id="line2d_5">
      <g>
       <use xlink:href="#mbb4d9efd99" x="262.60517" y="243.894125" style="fill: #ffffff; stroke: #ffffff; stroke-width: 0.8"/>
      </g>
     </g>
     <g id="text_5">
      <!-- May -->
      <g style="fill: #ffffff" transform="translate(252.26767 258.492563) scale(0.1 -0.1)">
       <use xlink:href="#DejaVuSans-4d"/>
       <use xlink:href="#DejaVuSans-61" x="86.279297"/>
       <use xlink:href="#DejaVuSans-79" x="147.558594"/>
      </g>
      <!-- 19 -->
      <g style="fill: #ffffff" transform="translate(256.24267 269.690375) scale(0.1 -0.1)">
       <use xlink:href="#DejaVuSans-31"/>
       <use xlink:href="#DejaVuSans-39" x="63.623047"/>
      </g>
     </g>
    </g>
    <g id="xtick_6">
     <g id="line2d_6">
      <g>
       <use xlink:href="#mbb4d9efd99" x="317.17087" y="243.894125" style="fill: #ffffff; stroke: #ffffff; stroke-width: 0.8"/>
      </g>
     </g>
     <g id="text_6">
      <!-- May -->
      <g style="fill: #ffffff" transform="translate(306.83337 258.492563) scale(0.1 -0.1)">
       <use xlink:href="#DejaVuSans-4d"/>
       <use xlink:href="#DejaVuSans-61" x="86.279297"/>
       <use xlink:href="#DejaVuSans-79" x="147.558594"/>
      </g>
      <!-- 24 -->
      <g style="fill: #ffffff" transform="translate(310.80837 269.690375) scale(0.1 -0.1)">
       <use xlink:href="#DejaVuSans-32"/>
       <use xlink:href="#DejaVuSans-34" x="63.623047"/>
      </g>
     </g>
    </g>
    <g id="xtick_7">
     <g id="line2d_7">
      <g>
       <use xlink:href="#mbb4d9efd99" x="371.73657" y="243.894125" style="fill: #ffffff; stroke: #ffffff; stroke-width: 0.8"/>
      </g>
     </g>
     <g id="text_7">
      <!-- May -->
      <g style="fill: #ffffff" transform="translate(361.39907 258.492563) scale(0.1 -0.1)">
       <use xlink:href="#DejaVuSans-4d"/>
       <use xlink:href="#DejaVuSans-61" x="86.279297"/>
       <use xlink:href="#DejaVuSans-79" x="147.558594"/>
      </g>
      <!-- 29 -->
      <g style="fill: #ffffff" transform="translate(365.37407 269.690375) scale(0.1 -0.1)">
       <use xlink:href="#DejaVuSans-32"/>
       <use xlink:href="#DejaVuSans-39" x="63.623047"/>
      </g>
     </g>
    </g>
    <g id="xtick_8">
     <g id="line2d_8">
      <g>
       <use xlink:href="#mbb4d9efd99" x="426.30227" y="243.894125" style="fill: #ffffff; stroke: #ffffff; stroke-width: 0.8"/>
      </g>
     </g>
     <g id="text_8">
      <!-- Jun -->
      <g style="fill: #ffffff" transform="translate(418.48977 258.492563) scale(0.1 -0.1)">
       <defs>
        <path id="DejaVuSans-4a" d="M 628 4666 
L 1259 4666 
L 1259 325 
Q 1259 -519 939 -900 
Q 619 -1281 -91 -1281 
L -331 -1281 
L -331 -750 
L -134 -750 
Q 284 -750 456 -515 
Q 628 -281 628 325 
L 628 4666 
z
" transform="scale(0.015625)"/>
        <path id="DejaVuSans-75" d="M 544 1381 
L 544 3500 
L 1119 3500 
L 1119 1403 
Q 1119 906 1312 657 
Q 1506 409 1894 409 
Q 2359 409 2629 706 
Q 2900 1003 2900 1516 
L 2900 3500 
L 3475 3500 
L 3475 0 
L 2900 0 
L 2900 538 
Q 2691 219 2414 64 
Q 2138 -91 1772 -91 
Q 1169 -91 856 284 
Q 544 659 544 1381 
z
M 1991 3584 
L 1991 3584 
z
" transform="scale(0.015625)"/>
        <path id="DejaVuSans-6e" d="M 3513 2113 
L 3513 0 
L 2938 0 
L 2938 2094 
Q 2938 2591 2744 2837 
Q 2550 3084 2163 3084 
Q 1697 3084 1428 2787 
Q 1159 2491 1159 1978 
L 1159 0 
L 581 0 
L 581 3500 
L 1159 3500 
L 1159 2956 
Q 1366 3272 1645 3428 
Q 1925 3584 2291 3584 
Q 2894 3584 3203 3211 
Q 3513 2838 3513 2113 
z
" transform="scale(0.015625)"/>
       </defs>
       <use xlink:href="#DejaVuSans-4a"/>
       <use xlink:href="#DejaVuSans-75" x="29.492188"/>
       <use xlink:href="#DejaVuSans-6e" x="92.871094"/>
      </g>
      <!-- 03 -->
      <g style="fill: #ffffff" transform="translate(419.93977 269.690375) scale(0.1 -0.1)">
       <defs>
        <path id="DejaVuSans-33" d="M 2597 2516 
Q 3050 2419 3304 2112 
Q 3559 1806 3559 1356 
Q 3559 666 3084 287 
Q 2609 -91 1734 -91 
Q 1441 -91 1130 -33 
Q 819 25 488 141 
L 488 750 
Q 750 597 1062 519 
Q 1375 441 1716 441 
Q 2309 441 2620 675 
Q 2931 909 2931 1356 
Q 2931 1769 2642 2001 
Q 2353 2234 1838 2234 
L 1294 2234 
L 1294 2753 
L 1863 2753 
Q 2328 2753 2575 2939 
Q 2822 3125 2822 3475 
Q 2822 3834 2567 4026 
Q 2313 4219 1838 4219 
Q 1578 4219 1281 4162 
Q 984 4106 628 3988 
L 628 4550 
Q 988 4650 1302 4700 
Q 1616 4750 1894 4750 
Q 2613 4750 3031 4423 
Q 3450 4097 3450 3541 
Q 3450 3153 3228 2886 
Q 3006 2619 2597 2516 
z
" transform="scale(0.015625)"/>
       </defs>
       <use xlink:href="#DejaVuSans-30"/>
       <use xlink:href="#DejaVuSans-33" x="63.623047"/>
      </g>
     </g>
    </g>
    <g id="xtick_9">
     <g id="line2d_9">
      <g>
       <use xlink:href="#mbb4d9efd99" x="480.86797" y="243.894125" style="fill: #ffffff; stroke: #ffffff; stroke-width: 0.8"/>
      </g>
     </g>
     <g id="text_9">
      <!-- Jun -->
      <g style="fill: #ffffff" transform="translate(473.05547 258.492563) scale(0.1 -0.1)">
       <use xlink:href="#DejaVuSans-4a"/>
       <use xlink:href="#DejaVuSans-75" x="29.492188"/>
       <use xlink:href="#DejaVuSans-6e" x="92.871094"/>
      </g>
      <!-- 08 -->
      <g style="fill: #ffffff" transform="translate(474.50547 269.690375) scale(0.1 -0.1)">
       <defs>
        <path id="DejaVuSans-38" d="M 2034 2216 
Q 1584 2216 1326 1975 
Q 1069 1734 1069 1313 
Q 1069 891 1326 650 
Q 1584 409 2034 409 
Q 2484 409 2743 651 
Q 3003 894 3003 1313 
Q 3003 1734 2745 1975 
Q 2488 2216 2034 2216 
z
M 1403 2484 
Q 997 2584 770 2862 
Q 544 3141 544 3541 
Q 544 4100 942 4425 
Q 1341 4750 2034 4750 
Q 2731 4750 3128 4425 
Q 3525 4100 3525 3541 
Q 3525 3141 3298 2862 
Q 3072 2584 2669 2484 
Q 3125 2378 3379 2068 
Q 3634 1759 3634 1313 
Q 3634 634 3220 271 
Q 2806 -91 2034 -91 
Q 1263 -91 848 271 
Q 434 634 434 1313 
Q 434 1759 690 2068 
Q 947 2378 1403 2484 
z
M 1172 3481 
Q 1172 3119 1398 2916 
Q 1625 2713 2034 2713 
Q 2441 2713 2670 2916 
Q 2900 3119 2900 3481 
Q 2900 3844 2670 4047 
Q 2441 4250 2034 4250 
Q 1625 4250 1398 4047 
Q 1172 3844 1172 3481 
z
" transform="scale(0.015625)"/>
       </defs>
       <use xlink:href="#DejaVuSans-30"/>
       <use xlink:href="#DejaVuSans-38" x="63.623047"/>
      </g>
     </g>
    </g>
    <g id="xtick_10">
     <g id="line2d_10">
      <g>
       <use xlink:href="#mbb4d9efd99" x="535.433669" y="243.894125" style="fill: #ffffff; stroke: #ffffff; stroke-width: 0.8"/>
      </g>
     </g>
     <g id="text_10">
      <!-- Jun -->
      <g style="fill: #ffffff" transform="translate(527.621169 258.492563) scale(0.1 -0.1)">
       <use xlink:href="#DejaVuSans-4a"/>
       <use xlink:href="#DejaVuSans-75" x="29.492188"/>
       <use xlink:href="#DejaVuSans-6e" x="92.871094"/>
      </g>
      <!-- 13 -->
      <g style="fill: #ffffff" transform="translate(529.071169 269.690375) scale(0.1 -0.1)">
       <use xlink:href="#DejaVuSans-31"/>
       <use xlink:href="#DejaVuSans-33" x="63.623047"/>
      </g>
     </g>
    </g>
    <g id="xtick_11">
     <g id="line2d_11">
      <g>
       <use xlink:href="#mbb4d9efd99" x="589.999369" y="243.894125" style="fill: #ffffff; stroke: #ffffff; stroke-width: 0.8"/>
      </g>
     </g>
     <g id="text_11">
      <!-- Jun -->
      <g style="fill: #ffffff" transform="translate(582.186869 258.492563) scale(0.1 -0.1)">
       <use xlink:href="#DejaVuSans-4a"/>
       <use xlink:href="#DejaVuSans-75" x="29.492188"/>
       <use xlink:href="#DejaVuSans-6e" x="92.871094"/>
      </g>
      <!-- 18 -->
      <g style="fill: #ffffff" transform="translate(583.636869 269.690375) scale(0.1 -0.1)">
       <use xlink:href="#DejaVuSans-31"/>
       <use xlink:href="#DejaVuSans-38" x="63.623047"/>
      </g>
     </g>
    </g>
    <g id="xtick_12">
     <g id="line2d_12">
      <g>
       <use xlink:href="#mbb4d9efd99" x="644.565069" y="243.894125" style="fill: #ffffff; stroke: #ffffff; stroke-width: 0.8"/>
      </g>
     </g>
     <g id="text_12">
      <!-- Jun -->
      <g style="fill: #ffffff" transform="translate(636.752569 258.492563) scale(0.1 -0.1)">
       <use xlink:href="#DejaVuSans-4a"/>
       <use xlink:href="#DejaVuSans-75" x="29.492188"/>
       <use xlink:href="#DejaVuSans-6e" x="92.871094"/>
      </g>
      <!-- 23 -->
      <g style="fill: #ffffff" transform="translate(638.202569 269.690375) scale(0.1 -0.1)">
       <use xlink:href="#DejaVuSans-32"/>
       <use xlink:href="#DejaVuSans-33" x="63.623047"/>
      </g>
     </g>
    </g>
   </g>
   <g id="matplotlib.axis_2">
    <g id="ytick_1">
     <g id="line2d_13">
      <defs>
       <path id="md5e5bc0ea9" d="M 0 0 
L -3.5 0 
" style="stroke: #ffffff; stroke-width: 0.8"/>
      </defs>
      <g>
       <use xlink:href="#md5e5bc0ea9" x="26.925" y="243.894125" style="fill: #ffffff; stroke: #ffffff; stroke-width: 0.8"/>
      </g>
     </g>
     <g id="text_13">
      <!-- 0 -->
      <g style="fill: #ffffff" transform="translate(13.5625 247.693344) scale(0.1 -0.1)">
       <use xlink:href="#DejaVuSans-30"/>
      </g>
     </g>
    </g>
    <g id="ytick_2">
     <g id="line2d_14">
      <g>
       <use xlink:href="#md5e5bc0ea9" x="26.925" y="198.995239" style="fill: #ffffff; stroke: #ffffff; stroke-width: 0.8"/>
      </g>
     </g>
     <g id="text_14">
      <!-- 10 -->
      <g style="fill: #ffffff" transform="translate(7.2 202.794458) scale(0.1 -0.1)">
       <use xlink:href="#DejaVuSans-31"/>
       <use xlink:href="#DejaVuSans-30" x="63.623047"/>
      </g>
     </g>
    </g>
    <g id="ytick_3">
     <g id="line2d_15">
      <g>
       <use xlink:href="#md5e5bc0ea9" x="26.925" y="154.096354" style="fill: #ffffff; stroke: #ffffff; stroke-width: 0.8"/>
      </g>
     </g>
     <g id="text_15">
      <!-- 20 -->
      <g style="fill: #ffffff" transform="translate(7.2 157.895573) scale(0.1 -0.1)">
       <use xlink:href="#DejaVuSans-32"/>
       <use xlink:href="#DejaVuSans-30" x="63.623047"/>
      </g>
     </g>
    </g>
    <g id="ytick_4">
     <g id="line2d_16">
      <g>
       <use xlink:href="#md5e5bc0ea9" x="26.925" y="109.197468" style="fill: #ffffff; stroke: #ffffff; stroke-width: 0.8"/>
      </g>
     </g>
     <g id="text_16">
      <!-- 30 -->
      <g style="fill: #ffffff" transform="translate(7.2 112.996687) scale(0.1 -0.1)">
       <use xlink:href="#DejaVuSans-33"/>
       <use xlink:href="#DejaVuSans-30" x="63.623047"/>
      </g>
     </g>
    </g>
    <g id="ytick_5">
     <g id="line2d_17">
      <g>
       <use xlink:href="#md5e5bc0ea9" x="26.925" y="64.298583" style="fill: #ffffff; stroke: #ffffff; stroke-width: 0.8"/>
      </g>
     </g>
     <g id="text_17">
      <!-- 40 -->
      <g style="fill: #ffffff" transform="translate(7.2 68.097802) scale(0.1 -0.1)">
       <use xlink:href="#DejaVuSans-34"/>
       <use xlink:href="#DejaVuSans-30" x="63.623047"/>
      </g>
     </g>
    </g>
   </g>
   <g id="patch_63">
    <path d="M 26.925 243.894125 
L 26.925 22.318125 
" style="fill: none; stroke: #ffffff; stroke-width: 0.8; stroke-linejoin: miter; stroke-linecap: square"/>
   </g>
   <g id="patch_64">
    <path d="M 705.635 243.894125 
L 705.635 22.318125 
" style="fill: none; stroke: #ffffff; stroke-width: 0.8; stroke-linejoin: miter; stroke-linecap: square"/>
   </g>
   <g id="patch_65">
    <path d="M 26.925 243.894125 
L 705.635 243.894125 
" style="fill: none; stroke: #ffffff; stroke-width: 0.8; stroke-linejoin: miter; stroke-linecap: square"/>
   </g>
   <g id="patch_66">
    <path d="M 26.925 22.318125 
L 705.635 22.318125 
" style="fill: none; stroke: #ffffff; stroke-width: 0.8; stroke-linejoin: miter; stroke-linecap: square"/>
   </g>
   <g id="text_18">
    <!-- Trump posts per day -->
    <g style="fill: #ffffff" transform="translate(304.76875 16.318125) scale(0.12 -0.12)">
     <defs>
      <path id="DejaVuSans-54" d="M -19 4666 
L 3928 4666 
L 3928 4134 
L 2272 4134 
L 2272 0 
L 1638 0 
L 1638 4134 
L -19 4134 
L -19 4666 
z
" transform="scale(0.015625)"/>
      <path id="DejaVuSans-6d" d="M 3328 2828 
Q 3544 3216 3844 3400 
Q 4144 3584 4550 3584 
Q 5097 3584 5394 3201 
Q 5691 2819 5691 2113 
L 5691 0 
L 5113 0 
L 5113 2094 
Q 5113 2597 4934 2840 
Q 4756 3084 4391 3084 
Q 3944 3084 3684 2787 
Q 3425 2491 3425 1978 
L 3425 0 
L 2847 0 
L 2847 2094 
Q 2847 2600 2669 2842 
Q 2491 3084 2119 3084 
Q 1678 3084 1418 2786 
Q 1159 2488 1159 1978 
L 1159 0 
L 581 0 
L 581 3500 
L 1159 3500 
L 1159 2956 
Q 1356 3278 1631 3431 
Q 1906 3584 2284 3584 
Q 2666 3584 2933 3390 
Q 3200 3197 3328 2828 
z
" transform="scale(0.015625)"/>
      <path id="DejaVuSans-20" transform="scale(0.015625)"/>
      <path id="DejaVuSans-6f" d="M 1959 3097 
Q 1497 3097 1228 2736 
Q 959 2375 959 1747 
Q 959 1119 1226 758 
Q 1494 397 1959 397 
Q 2419 397 2687 759 
Q 2956 1122 2956 1747 
Q 2956 2369 2687 2733 
Q 2419 3097 1959 3097 
z
M 1959 3584 
Q 2709 3584 3137 3096 
Q 3566 2609 3566 1747 
Q 3566 888 3137 398 
Q 2709 -91 1959 -91 
Q 1206 -91 779 398 
Q 353 888 353 1747 
Q 353 2609 779 3096 
Q 1206 3584 1959 3584 
z
" transform="scale(0.015625)"/>
      <path id="DejaVuSans-73" d="M 2834 3397 
L 2834 2853 
Q 2591 2978 2328 3040 
Q 2066 3103 1784 3103 
Q 1356 3103 1142 2972 
Q 928 2841 928 2578 
Q 928 2378 1081 2264 
Q 1234 2150 1697 2047 
L 1894 2003 
Q 2506 1872 2764 1633 
Q 3022 1394 3022 966 
Q 3022 478 2636 193 
Q 2250 -91 1575 -91 
Q 1294 -91 989 -36 
Q 684 19 347 128 
L 347 722 
Q 666 556 975 473 
Q 1284 391 1588 391 
Q 1994 391 2212 530 
Q 2431 669 2431 922 
Q 2431 1156 2273 1281 
Q 2116 1406 1581 1522 
L 1381 1569 
Q 847 1681 609 1914 
Q 372 2147 372 2553 
Q 372 3047 722 3315 
Q 1072 3584 1716 3584 
Q 2034 3584 2315 3537 
Q 2597 3491 2834 3397 
z
" transform="scale(0.015625)"/>
      <path id="DejaVuSans-74" d="M 1172 4494 
L 1172 3500 
L 2356 3500 
L 2356 3053 
L 1172 3053 
L 1172 1153 
Q 1172 725 1289 603 
Q 1406 481 1766 481 
L 2356 481 
L 2356 0 
L 1766 0 
Q 1100 0 847 248 
Q 594 497 594 1153 
L 594 3053 
L 172 3053 
L 172 3500 
L 594 3500 
L 594 4494 
L 1172 4494 
z
" transform="scale(0.015625)"/>
      <path id="DejaVuSans-65" d="M 3597 1894 
L 3597 1613 
L 953 1613 
Q 991 1019 1311 708 
Q 1631 397 2203 397 
Q 2534 397 2845 478 
Q 3156 559 3463 722 
L 3463 178 
Q 3153 47 2828 -22 
Q 2503 -91 2169 -91 
Q 1331 -91 842 396 
Q 353 884 353 1716 
Q 353 2575 817 3079 
Q 1281 3584 2069 3584 
Q 2775 3584 3186 3129 
Q 3597 2675 3597 1894 
z
M 3022 2063 
Q 3016 2534 2758 2815 
Q 2500 3097 2075 3097 
Q 1594 3097 1305 2825 
Q 1016 2553 972 2059 
L 3022 2063 
z
" transform="scale(0.015625)"/>
      <path id="DejaVuSans-64" d="M 2906 2969 
L 2906 4863 
L 3481 4863 
L 3481 0 
L 2906 0 
L 2906 525 
Q 2725 213 2448 61 
Q 2172 -91 1784 -91 
Q 1150 -91 751 415 
Q 353 922 353 1747 
Q 353 2572 751 3078 
Q 1150 3584 1784 3584 
Q 2172 3584 2448 3432 
Q 2725 3281 2906 2969 
z
M 947 1747 
Q 947 1113 1208 752 
Q 1469 391 1925 391 
Q 2381 391 2643 752 
Q 2906 1113 2906 1747 
Q 2906 2381 2643 2742 
Q 2381 3103 1925 3103 
Q 1469 3103 1208 2742 
Q 947 2381 947 1747 
z
" transform="scale(0.015625)"/>
     </defs>
     <use xlink:href="#DejaVuSans-54"/>
     <use xlink:href="#DejaVuSans-72" x="46.333984"/>
     <use xlink:href="#DejaVuSans-75" x="87.447266"/>
     <use xlink:href="#DejaVuSans-6d" x="150.826172"/>
     <use xlink:href="#DejaVuSans-70" x="248.238281"/>
     <use xlink:href="#DejaVuSans-20" x="311.714844"/>
     <use xlink:href="#DejaVuSans-70" x="343.501953"/>
     <use xlink:href="#DejaVuSans-6f" x="406.978516"/>
     <use xlink:href="#DejaVuSans-73" x="468.160156"/>
     <use xlink:href="#DejaVuSans-74" x="520.259766"/>
     <use xlink:href="#DejaVuSans-73" x="559.46875"/>
     <use xlink:href="#DejaVuSans-20" x="611.568359"/>
     <use xlink:href="#DejaVuSans-70" x="643.355469"/>
     <use xlink:href="#DejaVuSans-65" x="706.832031"/>
     <use xlink:href="#DejaVuSans-72" x="768.355469"/>
     <use xlink:href="#DejaVuSans-20" x="809.46875"/>
     <use xlink:href="#DejaVuSans-64" x="841.255859"/>
     <use xlink:href="#DejaVuSans-61" x="904.732422"/>
     <use xlink:href="#DejaVuSans-79" x="966.011719"/>
    </g>
   </g>
  </g>
 </g>
 <defs>
  <clipPath id="pa67ee5880d">
   <rect x="26.925" y="22.318125" width="678.71" height="221.576"/>
  </clipPath>
 </defs>
</svg>
